<svg width="27" height="27" viewBox="0 0 27 27" fill="none" xmlns="http://www.w3.org/2000/svg">
<path d="M13.5 19.0554L13.5 7.94434" stroke="#272727" stroke-width="2" stroke-linecap="round" stroke-linejoin="round"/>
<path d="M26 15.5832L26 11.4165" stroke="#272727" stroke-width="2" stroke-linecap="round" stroke-linejoin="round"/>
<path d="M1 15.5832L1 11.4165" stroke="#272727" stroke-width="2" stroke-linecap="round" stroke-linejoin="round"/>
<path d="M6.55556 1H3.88889C2.2934 1 1 2.2934 1 3.88889V6.55556" stroke="#272727" stroke-width="2" stroke-linecap="round" stroke-linejoin="round"/>
<path d="M20.4444 1H23.1111C24.7066 1 26 2.2934 26 3.88889V6.55556" stroke="#272727" stroke-width="2" stroke-linecap="round" stroke-linejoin="round"/>
<path d="M20.4444 26H23.1111C24.7066 26 26 24.7066 26 23.1111V20.4444" stroke="#272727" stroke-width="2" stroke-linecap="round" stroke-linejoin="round"/>
<path d="M6.55556 26H3.88889C2.2934 26 1 24.7066 1 23.1111V20.4444" stroke="#272727" stroke-width="2" stroke-linecap="round" stroke-linejoin="round"/>
<path d="M15.5834 1H11.4167" stroke="#272727" stroke-width="2" stroke-linecap="round" stroke-linejoin="round"/>
<path d="M19.0554 13.5L7.94434 13.5" stroke="#272727" stroke-width="2" stroke-linecap="round" stroke-linejoin="round"/>
<path d="M15.5834 26H11.4167" stroke="#272727" stroke-width="2" stroke-linecap="round" stroke-linejoin="round"/>
</svg>
