<svg width="23" height="23" viewBox="0 0 23 23" fill="none" xmlns="http://www.w3.org/2000/svg">
<path d="M2.26667 5.66667C2.26667 5.04074 1.75926 4.53333 1.13333 4.53333V4.53333C0.507411 4.53333 0 5.04074 0 5.66667V20.4C0 21.6467 1.02 22.6667 2.26667 22.6667H17C17.6259 22.6667 18.1333 22.1593 18.1333 21.5333V21.5333C18.1333 20.9074 17.6259 20.4 17 20.4H2.26667V5.66667ZM20.4 0H6.8C5.55333 0 4.53333 1.02 4.53333 2.26667V15.8667C4.53333 17.1133 5.55333 18.1333 6.8 18.1333H20.4C21.6467 18.1333 22.6667 17.1133 22.6667 15.8667V2.26667C22.6667 1.02 21.6467 0 20.4 0ZM20.4 15.8667H6.8V2.26667H20.4V15.8667ZM12.4667 13.6C12.4667 14.2259 12.9741 14.7333 13.6 14.7333V14.7333C14.2259 14.7333 14.7333 14.2259 14.7333 13.6V10.2H18.1333C18.7593 10.2 19.2667 9.69259 19.2667 9.06667V9.06667C19.2667 8.44074 18.7593 7.93333 18.1333 7.93333H14.7333V4.53333C14.7333 3.90741 14.2259 3.4 13.6 3.4V3.4C12.9741 3.4 12.4667 3.90741 12.4667 4.53333V7.93333H9.06667C8.44074 7.93333 7.93333 8.44074 7.93333 9.06667V9.06667C7.93333 9.69259 8.44074 10.2 9.06667 10.2H12.4667V13.6Z" fill="#858585"/>
</svg>
