<svg width="20" height="19" viewBox="0 0 20 19" fill="none" xmlns="http://www.w3.org/2000/svg">
<path d="M11.9607 1H6.06572C3.268 1 1 3.268 1 6.06572V13.2407C1 16.0384 3.268 18.3064 6.06572 18.3064H11.9607C14.7584 18.3064 17.0264 16.0384 17.0264 13.2407V6.06572C17.0264 3.268 14.7584 1 11.9607 1Z" stroke="#191919" stroke-width="0.8" stroke-miterlimit="10"/>
<path d="M16.534 12.8982H17.95C18.0655 12.8981 18.1798 12.9209 18.2865 12.965C18.3932 13.0092 18.4901 13.074 18.5718 13.1556C18.6534 13.2373 18.7182 13.3342 18.7624 13.4409C18.8065 13.5476 18.8293 13.6619 18.8292 13.7774V15.2639C18.8293 15.3794 18.8065 15.4937 18.7624 15.6004C18.7182 15.7071 18.6534 15.804 18.5718 15.8857C18.4901 15.9673 18.3932 16.0321 18.2865 16.0762C18.1798 16.1204 18.0655 16.1431 17.95 16.1431H16.113M16.113 3.16333H17.95C18.0655 3.16331 18.1798 3.18603 18.2865 3.23021C18.3932 3.27438 18.4901 3.33914 18.5718 3.42079C18.6534 3.50244 18.7182 3.59937 18.7624 3.70605C18.8065 3.81273 18.8293 3.92706 18.8292 4.04253V5.52908C18.8293 5.64454 18.8065 5.75888 18.7624 5.86556C18.7182 5.97224 18.6534 6.06917 18.5718 6.15082C18.4901 6.23246 18.3932 6.29722 18.2865 6.3414C18.1798 6.38557 18.0655 6.4083 17.95 6.40827H16.534L16.113 3.16333ZM16.534 8.03075H17.95C18.0655 8.03072 18.1798 8.05345 18.2865 8.09762C18.3932 8.1418 18.4901 8.20656 18.5718 8.28821C18.6534 8.36985 18.7182 8.46678 18.7624 8.57346C18.8065 8.68014 18.8293 8.79448 18.8292 8.90995V10.3965C18.8293 10.512 18.8065 10.6263 18.7624 10.733C18.7182 10.8397 18.6534 10.9366 18.5718 11.0182C18.4901 11.0999 18.3932 11.1646 18.2865 11.2088C18.1798 11.253 18.0655 11.2757 17.95 11.2757H16.534V8.03075Z" stroke="#1A1A1A" stroke-width="0.5" stroke-miterlimit="10"/>
<path d="M9.01325 9.65321C10.5565 9.65321 11.8075 8.40218 11.8075 6.85896C11.8075 5.31573 10.5565 4.0647 9.01325 4.0647C7.47003 4.0647 6.21899 5.31573 6.21899 6.85896C6.21899 8.40218 7.47003 9.65321 9.01325 9.65321Z" stroke="#1A1A1A" stroke-width="0.8" stroke-miterlimit="10"/>
<path d="M13.3134 13.2234C13.0897 12.6761 12.82 12.1488 12.5073 11.6471C10.8404 8.9884 6.96652 8.9884 5.29988 11.6471C4.98712 12.1489 4.71737 12.6762 4.49351 13.2234C4.01866 14.3781 4.77149 15.6988 5.89965 15.6988H11.908C13.0355 15.6988 13.7883 14.3781 13.3134 13.2234Z" stroke="#1A1A1A" stroke-width="0.8" stroke-miterlimit="10"/>
</svg>
