<svg width="14" height="23" viewBox="0 0 14 23" fill="none" xmlns="http://www.w3.org/2000/svg">
<path d="M5.23423 11.3659L12.9042 3.6959C13.3078 3.28994 13.5343 2.7408 13.5343 2.1684C13.5343 1.59599 13.3078 1.04685 12.9042 0.640896C12.7028 0.437818 12.4632 0.27663 12.1991 0.166631C11.9351 0.0566323 11.6519 0 11.3659 0C11.0799 0 10.7967 0.0566323 10.5326 0.166631C10.2686 0.27663 10.029 0.437818 9.82757 0.640896L0.640896 9.82756C0.437818 10.029 0.276631 10.2686 0.166632 10.5326C0.0566334 10.7967 0 11.0799 0 11.3659C0 11.6519 0.0566334 11.9351 0.166632 12.1991C0.276631 12.4632 0.437818 12.7028 0.640896 12.9042L9.82757 22.1992C10.03 22.4 10.2701 22.5589 10.5341 22.6667C10.7981 22.7746 11.0808 22.8292 11.3659 22.8276C11.651 22.8292 11.9337 22.7746 12.1977 22.6667C12.4617 22.5589 12.7018 22.4 12.9042 22.1992C13.3078 21.7933 13.5343 21.2441 13.5343 20.6717C13.5343 20.0993 13.3078 19.5502 12.9042 19.1442L5.23423 11.3659Z" fill="#272727"/>
</svg>
