<svg width="38" height="36" viewBox="0 0 38 36" fill="none" xmlns="http://www.w3.org/2000/svg">
<path d="M18.6724 8.22687C18.6724 -8.09228 -21.1161 4.28926 18.6724 34.0123C58.4609 4.29143 18.6724 -8.09011 18.6724 8.22687V8.22687Z" fill="#FF3434"/>
<path d="M18.6724 35C18.464 35 18.2556 34.9349 18.0798 34.8025C10.2849 28.9807 4.92546 23.3782 2.15568 18.1512C-0.826833 12.527 -0.171288 8.53293 0.905368 6.1734C3.14768 1.25248 8.96943 -0.711988 13.3021 0.227916C15.7702 0.764073 17.6218 2.1164 18.6724 4.05265C19.723 2.1164 21.5746 0.764073 24.0426 0.227916C28.3753 -0.711988 34.197 1.25248 36.4394 6.17123C37.516 8.53293 38.1716 12.527 35.1912 18.1512C32.4193 23.3782 27.062 28.9807 19.265 34.8046C19.0891 34.9349 18.8807 35.0022 18.6724 35.0022V35ZM11.0576 1.97097C7.83417 1.97097 4.23736 3.63588 2.70703 6.99174C1.30477 10.0698 0.0913635 18.696 18.6724 32.7729C37.2534 18.696 36.04 10.0676 34.6377 6.99174C32.81 2.98033 28.0302 1.38706 24.4616 2.15982C21.4096 2.82187 19.66 5.03379 19.66 8.22469C19.66 8.7717 19.2172 9.21452 18.6702 9.21452C18.1232 9.21452 17.6804 8.7717 17.6804 8.22469C17.6804 5.03379 15.9308 2.82187 12.8788 2.15982C12.2971 2.03392 11.6828 1.97097 11.0555 1.97097H11.0576Z" fill="#272727"/>
<path d="M18.6724 34.8307C18.5964 34.8307 18.5183 34.822 18.4402 34.8024C17.9083 34.6744 17.5827 34.1404 17.7108 33.6086L18.8786 28.7658L15.2666 24.3202C15.0192 24.0164 14.9758 23.5952 15.1538 23.2458L17.561 18.5397L15.1538 13.8337C15.0083 13.5515 15.0083 13.2151 15.1538 12.9329L17.7911 7.77534C18.0408 7.28911 18.6355 7.09592 19.1218 7.34555C19.608 7.59518 19.8012 8.18994 19.5515 8.67618L17.1443 13.3822L19.5515 18.0882C19.697 18.3704 19.697 18.7069 19.5515 18.9891L17.2072 23.5714L20.7215 27.8953C20.9169 28.1341 20.9885 28.451 20.9147 28.7506L19.6319 34.0688C19.5233 34.5224 19.1174 34.8263 18.6703 34.8263L18.6724 34.8307Z" fill="#272727"/>
</svg>
