<svg width="30" height="29" viewBox="0 0 30 29" fill="none" xmlns="http://www.w3.org/2000/svg">
<g clip-path="url(#clip0_1429_3160)">
<path d="M1.25166 23.7455C0.710083 22.6177 0.417097 21.35 0.425976 20.021C0.470368 15.3873 4.29694 11.5842 9.00248 11.4968C13.9566 11.4093 17.9874 15.3873 17.8986 20.2571C17.8098 24.8209 14.0631 28.5541 9.42864 28.6939C7.81278 28.7377 6.2857 28.353 4.9717 27.6448C4.45675 27.8983 3.33808 28.4404 2.21053 28.8863C1.41147 29.201 0.488124 28.8688 0.124111 28.0994V28.0732C-0.0268209 27.7672 -0.0356993 27.4262 0.0708411 27.1115L1.25166 23.7368V23.7455Z" fill="#F37C49"/>
<path d="M1.60702 27.3563L2.82336 23.7455C2.24627 22.7226 1.90889 21.5511 1.90889 20.3008C1.90889 16.4015 5.11398 13.2454 9.07373 13.2454C13.0335 13.2454 16.2386 16.4015 16.2386 20.3008C16.2386 24.2001 13.0335 27.3563 9.07373 27.3563C7.76861 27.3563 6.53452 27.0066 5.47799 26.4033L1.59814 27.3563H1.60702Z" fill="white" stroke="#F37C49" stroke-width="0.09" stroke-miterlimit="10"/>
<path d="M28.1177 17.5381C28.8724 15.9557 29.2985 14.1809 29.2985 12.3187C29.2985 5.51673 23.6963 0 16.7889 0C9.88155 0 4.2793 5.51673 4.2793 12.3187C4.2793 19.1206 9.88155 24.6373 16.7889 24.6373C18.9641 24.6373 21.0061 24.0865 22.7907 23.1248C23.6519 23.5532 25.6939 24.5324 27.5584 25.2056C29.7691 25.092 29.9999 22.915 29.9999 22.915L28.1177 17.5381Z" fill="#F37C49"/>
<path d="M28.6236 23.6056L26.2442 17.4681C27.1231 15.9294 27.6203 14.1459 27.6203 12.2574C27.6203 6.36473 22.7727 1.5824 16.7798 1.5824C10.787 1.5824 5.94824 6.36473 5.94824 12.2574C5.94824 18.1501 10.7958 22.9324 16.7887 22.9324C18.7686 22.9324 20.6242 22.4078 22.2223 21.4986L28.6236 23.6144V23.6056Z" fill="white" stroke="#F37C49" stroke-width="0.13" stroke-miterlimit="10"/>
<path d="M11.8437 16.6727H18.4581C19.5856 16.6727 19.5856 14.9503 18.4581 14.9503H11.8437C10.7162 14.9503 10.7162 16.6727 11.8437 16.6727Z" fill="#F37C49"/>
<path d="M11.8437 13.123H20.6422C21.7697 13.123 21.7697 11.4006 20.6422 11.4006H11.8437C10.7162 11.4006 10.7162 13.123 11.8437 13.123Z" fill="#F37C49"/>
<path d="M11.8437 9.56462H20.6422C21.7697 9.56462 21.7697 7.84229 20.6422 7.84229H11.8437C10.7162 7.84229 10.7162 9.56462 11.8437 9.56462Z" fill="#F37C49"/>
</g>
<defs>
<clipPath id="clip0_1429_3160">
<rect width="30" height="29" fill="white"/>
</clipPath>
</defs>
</svg>
