<svg width="34" height="38" viewBox="0 0 34 38" fill="none" xmlns="http://www.w3.org/2000/svg">
<path d="M25.5 9.32245H8.5C8.04913 9.32245 7.61673 9.51889 7.29792 9.86855C6.97911 10.2182 6.8 10.6924 6.8 11.1869C6.8 11.6814 6.97911 12.1557 7.29792 12.5053C7.61673 12.855 8.04913 13.0514 8.5 13.0514H25.5C25.9509 13.0514 26.3833 12.855 26.7021 12.5053C27.0209 12.1557 27.2 11.6814 27.2 11.1869C27.2 10.6924 27.0209 10.2182 26.7021 9.86855C26.3833 9.51889 25.9509 9.32245 25.5 9.32245ZM25.5 16.7804H8.5C8.04913 16.7804 7.61673 16.9768 7.29792 17.3265C6.97911 17.6762 6.8 18.1504 6.8 18.6449C6.8 19.1394 6.97911 19.6136 7.29792 19.9633C7.61673 20.313 8.04913 20.5094 8.5 20.5094H25.5C25.9509 20.5094 26.3833 20.313 26.7021 19.9633C27.0209 19.6136 27.2 19.1394 27.2 18.6449C27.2 18.1504 27.0209 17.6762 26.7021 17.3265C26.3833 16.9768 25.9509 16.7804 25.5 16.7804ZM28.9 0H5.1C3.7474 0 2.45019 0.58931 1.49376 1.63829C0.53732 2.68727 0 4.10999 0 5.59347V24.2384C0 25.7218 0.53732 27.1446 1.49376 28.1936C2.45019 29.2425 3.7474 29.8318 5.1 29.8318H24.803L31.093 36.7491C31.2519 36.9219 31.4402 37.0586 31.6474 37.1514C31.8545 37.2442 32.0763 37.2912 32.3 37.2898C32.523 37.2961 32.7442 37.245 32.946 37.1406C33.2565 37.0008 33.5222 36.7632 33.7098 36.458C33.8973 36.1527 33.9983 35.7934 34 35.4253V5.59347C34 4.10999 33.4627 2.68727 32.5062 1.63829C31.5498 0.58931 30.2526 0 28.9 0ZM30.6 30.9319L26.707 26.6436C26.5482 26.4708 26.3598 26.334 26.1526 26.2413C25.9455 26.1485 25.7237 26.1014 25.5 26.1029H5.1C4.64913 26.1029 4.21673 25.9064 3.89792 25.5568C3.57911 25.2071 3.4 24.7329 3.4 24.2384V5.59347C3.4 5.09898 3.57911 4.62474 3.89792 4.27508C4.21673 3.92542 4.64913 3.72898 5.1 3.72898H28.9C29.3509 3.72898 29.7833 3.92542 30.1021 4.27508C30.4209 4.62474 30.6 5.09898 30.6 5.59347V30.9319Z" fill="#EAEAEA"/>
</svg>
