<svg width="12" height="14" viewBox="0 0 12 14" fill="none" xmlns="http://www.w3.org/2000/svg">
<path d="M11.83 6.46116C11.7848 6.3247 11.7172 6.20002 11.6308 6.09429L6.88986 0.535688C6.80145 0.432033 6.6965 0.349809 6.58099 0.293712C6.46548 0.237614 6.34167 0.20874 6.21664 0.20874C5.96414 0.20874 5.72197 0.326347 5.54342 0.535688C5.45502 0.639343 5.38489 0.7624 5.33704 0.897832C5.28919 1.03326 5.26457 1.17842 5.26457 1.32501C5.26457 1.62106 5.36487 1.90499 5.54342 2.11433L8.67247 5.77189H1.47566C1.22418 5.77189 0.983008 5.88902 0.805186 6.09751C0.627365 6.306 0.527466 6.58877 0.527466 6.88362C0.527466 7.17846 0.627365 7.46123 0.805186 7.66972C0.983008 7.87821 1.22418 7.99534 1.47566 7.99534H8.67247L5.54342 11.6529C5.45455 11.7562 5.38401 11.8792 5.33587 12.0147C5.28773 12.1502 5.26295 12.2955 5.26295 12.4422C5.26295 12.589 5.28773 12.7343 5.33587 12.8698C5.38401 13.0052 5.45455 13.1282 5.54342 13.2315C5.63157 13.3357 5.73644 13.4184 5.85199 13.4749C5.96754 13.5313 6.09147 13.5604 6.21664 13.5604C6.34182 13.5604 6.46575 13.5313 6.5813 13.4749C6.69684 13.4184 6.80172 13.3357 6.88986 13.2315L11.6308 7.67294C11.7172 7.56721 11.7848 7.44254 11.83 7.30607C11.9248 7.03541 11.9248 6.73182 11.83 6.46116Z" fill="white"/>
</svg>
