<svg width="23" height="16" viewBox="0 0 23 16" fill="none" xmlns="http://www.w3.org/2000/svg">
<path d="M19.7333 0H2.66667C1.19391 0 0 1.19391 0 2.66667V13.3333C0 14.8061 1.19391 16 2.66667 16H19.7333C21.2061 16 22.4 14.8061 22.4 13.3333V2.66667C22.4 1.19391 21.2061 0 19.7333 0Z" fill="#E0E0E0"/>
<path d="M22.4 3.19995H0V6.39995H22.4V3.19995Z" fill="#3E3E3E"/>
<path d="M4.26663 11.7334H2.1333V12.8001H4.26663V11.7334Z" fill="#3E3E3E"/>
<path d="M7.46659 11.7334H5.33325V12.8001H7.46659V11.7334Z" fill="#3E3E3E"/>
<path d="M10.6668 11.7334H8.53345V12.8001H10.6668V11.7334Z" fill="#3E3E3E"/>
<path d="M13.8667 11.7334H11.7334V12.8001H13.8667V11.7334Z" fill="#3E3E3E"/>
<path d="M17.0666 8.5332H2.1333V9.59987H17.0666V8.5332Z" fill="#3E3E3E"/>
</svg>
