<svg width="36" height="36" viewBox="0 0 36 36" fill="none" xmlns="http://www.w3.org/2000/svg">
<circle cx="18" cy="18" r="18" fill="#3E3E3E"/>
<path d="M24.8676 15.4422L24.5321 25.5992C24.5035 26.4691 24.137 27.2936 23.5105 27.8978C22.884 28.5019 22.0467 28.8381 21.1763 28.835H14.8004C13.9306 28.8381 13.0938 28.5024 12.4674 27.899C11.8409 27.2956 11.4741 26.4719 11.4446 25.6026L11.1091 15.4422C11.1017 15.2197 11.1831 15.0034 11.3352 14.8409C11.4874 14.6784 11.6978 14.5829 11.9203 14.5756C12.1428 14.5683 12.3591 14.6496 12.5217 14.8017C12.6842 14.9539 12.7796 15.1644 12.7869 15.3869L13.1225 25.5464C13.1392 25.9801 13.3234 26.3904 13.6362 26.6913C13.9491 26.9921 14.3664 27.16 14.8004 27.1597H21.1763C21.6109 27.1599 22.0287 26.9916 22.3416 26.6901C22.6546 26.3885 22.8383 25.9773 22.8542 25.543L23.1898 15.3869C23.1971 15.1644 23.2925 14.9539 23.4551 14.8017C23.6176 14.6496 23.8339 14.5683 24.0564 14.5756C24.2789 14.5829 24.4894 14.6784 24.6415 14.8409C24.7936 15.0034 24.875 15.2197 24.8676 15.4422ZM25.9776 12.0621C25.9776 12.2846 25.8892 12.498 25.7318 12.6554C25.5745 12.8127 25.3611 12.9011 25.1386 12.9011H10.8389C10.6164 12.9011 10.4031 12.8127 10.2457 12.6554C10.0884 12.498 10 12.2846 10 12.0621C10 11.8396 10.0884 11.6263 10.2457 11.4689C10.4031 11.3116 10.6164 11.2232 10.8389 11.2232H13.4396C13.7055 11.2239 13.962 11.1257 14.1594 10.9477C14.3568 10.7697 14.4809 10.5246 14.5076 10.2601C14.5695 9.6397 14.8602 9.06456 15.323 8.64675C15.7858 8.22894 16.3875 7.99839 17.011 8.00001H18.9657C19.5892 7.99839 20.191 8.22894 20.6538 8.64675C21.1165 9.06456 21.4072 9.6397 21.4691 10.2601C21.4958 10.5246 21.6199 10.7697 21.8173 10.9477C22.0147 11.1257 22.2713 11.2239 22.5371 11.2232H25.1378C25.3603 11.2232 25.5737 11.3116 25.731 11.4689C25.8883 11.6263 25.9767 11.8396 25.9767 12.0621H25.9776ZM15.964 11.2232H20.0144C19.9042 10.9713 19.832 10.7044 19.8005 10.4312C19.7797 10.2245 19.6829 10.0327 19.5288 9.89325C19.3748 9.75375 19.1744 9.67641 18.9666 9.67621H17.0118C16.804 9.67641 16.6036 9.75375 16.4496 9.89325C16.2955 10.0327 16.1987 10.2245 16.1779 10.4312C16.1461 10.7044 16.0737 10.9714 15.9632 11.2232H15.964ZM16.8088 23.9339V16.7904C16.8088 16.5679 16.7204 16.3545 16.5631 16.1972C16.4058 16.0398 16.1924 15.9515 15.9699 15.9515C15.7474 15.9515 15.534 16.0398 15.3767 16.1972C15.2193 16.3545 15.1309 16.5679 15.1309 16.7904V23.9373C15.1309 24.1598 15.2193 24.3732 15.3767 24.5305C15.534 24.6878 15.7474 24.7762 15.9699 24.7762C16.1924 24.7762 16.4058 24.6878 16.5631 24.5305C16.7204 24.3732 16.8088 24.1598 16.8088 23.9373V23.9339ZM20.8475 23.9339V16.7904C20.8475 16.5679 20.7591 16.3545 20.6017 16.1972C20.4444 16.0398 20.231 15.9515 20.0085 15.9515C19.786 15.9515 19.5726 16.0398 19.4153 16.1972C19.258 16.3545 19.1696 16.5679 19.1696 16.7904V23.9373C19.1696 24.1598 19.258 24.3732 19.4153 24.5305C19.5726 24.6878 19.786 24.7762 20.0085 24.7762C20.231 24.7762 20.4444 24.6878 20.6017 24.5305C20.7591 24.3732 20.8475 24.1598 20.8475 23.9373V23.9339Z" fill="white"/>
</svg>
