<svg width="38" height="35" viewBox="0 0 38 35" fill="none" xmlns="http://www.w3.org/2000/svg">
<g clip-path="url(#clip0_978_3259)">
<path d="M18.6722 35C18.4638 35 18.2554 34.9349 18.0796 34.8025C10.2847 28.9807 4.92528 23.3782 2.15549 18.1512C-0.827016 12.527 -0.171471 8.53293 0.905185 6.1734C3.14749 1.25248 8.96925 -0.711988 13.3019 0.227916C15.77 0.764073 17.6216 2.1164 18.6722 4.05265C19.7228 2.1164 21.5744 0.764073 24.0424 0.227916C28.3751 -0.711988 34.1969 1.25248 36.4392 6.17123C37.5158 8.53293 38.1714 12.527 35.191 18.1512C32.4191 23.3782 27.0618 28.9807 19.2648 34.8046C19.0889 34.9349 18.8806 35.0022 18.6722 35.0022V35ZM11.0574 1.97097C7.83399 1.97097 4.23717 3.63588 2.70685 6.99174C1.30459 10.0698 0.0911804 18.696 18.6722 32.7729C37.2532 18.696 36.0398 10.0676 34.6375 6.99174C32.8098 2.98033 28.03 1.38706 24.4614 2.15982C21.4094 2.82187 19.6598 5.03379 19.6598 8.22469C19.6598 8.7717 19.217 9.21452 18.67 9.21452C18.123 9.21452 17.6802 8.7717 17.6802 8.22469C17.6802 5.03379 15.9306 2.82187 12.8786 2.15982C12.2969 2.03392 11.6826 1.97097 11.0553 1.97097H11.0574Z" fill="#EAEAEA"/>
<path d="M18.6722 34.8307C18.5963 34.8307 18.5181 34.822 18.44 34.8025C17.9082 34.6744 17.5826 34.1404 17.7106 33.6086L18.8785 28.7658L15.2664 24.3203C15.019 24.0164 14.9756 23.5953 15.1536 23.2458L17.5609 18.5398L15.1536 13.8337C15.0081 13.5515 15.0081 13.2151 15.1536 12.9329L17.7909 7.77537C18.0406 7.28914 18.6353 7.09595 19.1216 7.34558C19.6078 7.59521 19.801 8.18997 19.5514 8.67621L17.1441 13.3822L19.5514 18.0883C19.6968 18.3705 19.6968 18.7069 19.5514 18.9891L17.207 23.5714L20.7214 27.8954C20.9167 28.1342 20.9884 28.4511 20.9145 28.7506L19.6317 34.0688C19.5231 34.5225 19.1172 34.8264 18.6701 34.8264L18.6722 34.8307Z" fill="#EAEAEA"/>
</g>
<defs>
<clipPath id="clip0_978_3259">
<rect width="37.3443" height="35" fill="white"/>
</clipPath>
</defs>
</svg>
