<svg width="16" height="16" viewBox="0 0 16 16" fill="none" xmlns="http://www.w3.org/2000/svg">
<path fill-rule="evenodd" clip-rule="evenodd" d="M3.55544 1.34824C4.87104 0.469192 6.41775 0 8 0C10.1217 0 12.1566 0.842855 13.6569 2.34315C15.1571 3.84344 16 5.87827 16 8C16 9.58225 15.5308 11.129 14.6518 12.4446C13.7727 13.7602 12.5233 14.7855 11.0615 15.391C9.59966 15.9965 7.99113 16.155 6.43928 15.8463C4.88743 15.5376 3.46197 14.7757 2.34315 13.6569C1.22433 12.538 0.462403 11.1126 0.153721 9.56072C-0.15496 8.00887 0.00346627 6.40034 0.608967 4.93853C1.21447 3.47672 2.23985 2.22729 3.55544 1.34824ZM4.44435 13.3214C5.49683 14.0246 6.7342 14.4 8 14.4C9.69739 14.4 11.3253 13.7257 12.5255 12.5255C13.7257 11.3253 14.4 9.69739 14.4 8C14.4 6.7342 14.0246 5.49683 13.3214 4.44435C12.6182 3.39188 11.6186 2.57157 10.4492 2.08717C9.27973 1.60277 7.9929 1.47603 6.75143 1.72297C5.50995 1.96992 4.36958 2.57946 3.47452 3.47452C2.57946 4.36957 1.96992 5.50994 1.72298 6.75142C1.47603 7.9929 1.60277 9.27973 2.08717 10.4492C2.57158 11.6186 3.39188 12.6182 4.44435 13.3214ZM8 8.472L10.632 5.832C10.7066 5.75741 10.7951 5.69824 10.8926 5.65787C10.9901 5.61751 11.0945 5.59673 11.2 5.59673C11.3055 5.59673 11.4099 5.61751 11.5074 5.65787C11.6049 5.69824 11.6934 5.75741 11.768 5.832C11.8426 5.90659 11.9018 5.99514 11.9421 6.0926C11.9825 6.19006 12.0033 6.29451 12.0033 6.4C12.0033 6.50549 11.9825 6.60994 11.9421 6.7074C11.9018 6.80486 11.8426 6.89341 11.768 6.968L8.568 10.168C8.49363 10.243 8.40515 10.3025 8.30766 10.3431C8.21017 10.3837 8.10561 10.4046 8 10.4046C7.89439 10.4046 7.78983 10.3837 7.69234 10.3431C7.59485 10.3025 7.50637 10.243 7.432 10.168L4.232 6.968C4.08136 6.81736 3.99673 6.61304 3.99673 6.4C3.99673 6.18696 4.08136 5.98264 4.232 5.832C4.38264 5.68136 4.58696 5.59673 4.8 5.59673C5.01304 5.59673 5.21736 5.68136 5.368 5.832L8 8.472Z" fill="#D0D0D0"/>
</svg>
