<svg width="16" height="15" viewBox="0 0 16 15" fill="none" xmlns="http://www.w3.org/2000/svg">
<path fill-rule="evenodd" clip-rule="evenodd" d="M10.0911 2.16854C9.99735 2.08064 9.87018 2.03125 9.73757 2.03125C9.60496 2.03125 9.47778 2.08064 9.38402 2.16854L3.25576 7.91379C3.19294 7.97268 3.14799 8.0462 3.12554 8.12678L2.45887 10.5195C2.41401 10.6806 2.46357 10.8518 2.58909 10.9695C2.71461 11.0871 2.89726 11.1336 3.06901 11.0915L5.62129 10.4665C5.70724 10.4455 5.78566 10.4034 5.84848 10.3445L11.9767 4.59922C12.172 4.41617 12.172 4.11937 11.9767 3.93631L10.0911 2.16854ZM4.05879 8.48676L9.73757 3.16291L10.9161 4.26777L5.23731 9.59162L3.64213 9.98224L4.05879 8.48676Z" fill="#F7F7F7"/>
<path d="M2.6665 12.0313C2.39036 12.0313 2.1665 12.2411 2.1665 12.5C2.1665 12.7589 2.39036 12.9688 2.6665 12.9688H12.6665C12.9426 12.9688 13.1665 12.7589 13.1665 12.5C13.1665 12.2411 12.9426 12.0313 12.6665 12.0313H2.6665Z" fill="#F7F7F7"/>
</svg>
