<svg width="36" height="36" viewBox="0 0 36 36" fill="none" xmlns="http://www.w3.org/2000/svg">
<circle cx="18" cy="18" r="18" fill="#3E3E3E"/>
<path d="M11 24.0058H15.24C15.3716 24.0066 15.5021 23.9813 15.6239 23.9316C15.7457 23.8818 15.8566 23.8085 15.95 23.7158L22.87 16.7858L25.71 14.0058C25.8037 13.9128 25.8781 13.8022 25.9289 13.6804C25.9797 13.5585 26.0058 13.4278 26.0058 13.2958C26.0058 13.1638 25.9797 13.0331 25.9289 12.9112C25.8781 12.7894 25.8037 12.6788 25.71 12.5858L21.47 8.2958C21.377 8.20207 21.2664 8.12768 21.1446 8.07691C21.0227 8.02614 20.892 8 20.76 8C20.628 8 20.4973 8.02614 20.3754 8.07691C20.2536 8.12768 20.143 8.20207 20.05 8.2958L17.23 11.1258L10.29 18.0558C10.1973 18.1492 10.124 18.2601 10.0742 18.3819C10.0245 18.5037 9.99924 18.6342 10 18.7658V23.0058C10 23.271 10.1054 23.5254 10.2929 23.7129C10.4804 23.9004 10.7348 24.0058 11 24.0058ZM20.76 10.4158L23.59 13.2458L22.17 14.6658L19.34 11.8358L20.76 10.4158ZM12 19.1758L17.93 13.2458L20.76 16.0758L14.83 22.0058H12V19.1758ZM27 26.0058H9C8.73478 26.0058 8.48043 26.1112 8.29289 26.2987C8.10536 26.4862 8 26.7406 8 27.0058C8 27.271 8.10536 27.5254 8.29289 27.7129C8.48043 27.9004 8.73478 28.0058 9 28.0058H27C27.2652 28.0058 27.5196 27.9004 27.7071 27.7129C27.8946 27.5254 28 27.271 28 27.0058C28 26.7406 27.8946 26.4862 27.7071 26.2987C27.5196 26.1112 27.2652 26.0058 27 26.0058Z" fill="white"/>
</svg>
