<svg width="18" height="18" viewBox="0 0 18 18" fill="none" xmlns="http://www.w3.org/2000/svg">
<path d="M11.7 18H6.30004C6.16334 18.0007 6.02826 17.9703 5.90507 17.9111C5.78188 17.8518 5.6738 17.7653 5.58904 17.658C5.50024 17.5521 5.437 17.4273 5.40423 17.293C5.37145 17.1588 5.37002 17.0189 5.40004 16.884L6.30004 13.284C6.34932 13.0843 6.4655 12.9075 6.62926 12.7831C6.79301 12.6586 6.99445 12.594 7.20004 12.6H10.8C11.0056 12.594 11.2071 12.6586 11.3708 12.7831C11.5346 12.9075 11.6508 13.0843 11.7 13.284L12.6 16.884C12.6338 17.0168 12.6367 17.1556 12.6086 17.2897C12.5805 17.4239 12.5222 17.5498 12.438 17.658C12.3505 17.7689 12.2381 17.8577 12.1099 17.9171C11.9817 17.9765 11.8413 18.0049 11.7 18ZM7.45204 16.2H10.548L10.098 14.4H7.90204L7.45204 16.2Z" fill="white"/>
<path d="M17.1 14.4H0.9C0.661305 14.4 0.432387 14.3052 0.263604 14.1364C0.0948211 13.9676 0 13.7387 0 13.5V0.9C0 0.661305 0.0948211 0.432387 0.263604 0.263604C0.432387 0.0948211 0.661305 0 0.9 0H17.1C17.3387 0 17.5676 0.0948211 17.7364 0.263604C17.9052 0.432387 18 0.661305 18 0.9V13.5C18 13.7387 17.9052 13.9676 17.7364 14.1364C17.5676 14.3052 17.3387 14.4 17.1 14.4ZM1.8 12.6H16.2V1.8H1.8V12.6Z" fill="white"/>
<path d="M17.1 9H0.900024V10.8H17.1V9Z" fill="white"/>
</svg>
