<svg width="20" height="18" viewBox="0 0 20 18" fill="none" xmlns="http://www.w3.org/2000/svg">
<path fill-rule="evenodd" clip-rule="evenodd" d="M3.40002 0.973145C2.12922 0.973145 0.93335 1.92997 0.93335 3.30648V5.30648C0.93335 5.85876 1.38106 6.30648 1.93335 6.30648C2.48563 6.30648 2.93335 5.85876 2.93335 5.30648V3.30648C2.93335 3.24675 2.95784 3.17408 3.03548 3.1035C3.11471 3.03147 3.2408 2.97314 3.40002 2.97314H5.60002C6.1523 2.97314 6.60002 2.52543 6.60002 1.97314C6.60002 1.42086 6.1523 0.973145 5.60002 0.973145H3.40002ZM13.3999 1.97314C13.3999 1.42086 13.8476 0.973145 14.3999 0.973145H16.5999C17.8707 0.973145 19.0666 1.92997 19.0666 3.30648V5.30648C19.0666 5.85876 18.6189 6.30648 18.0666 6.30648C17.5143 6.30648 17.0666 5.85876 17.0666 5.30648V3.30648C17.0666 3.24675 17.0421 3.17408 16.9644 3.1035C16.8852 3.03147 16.7591 2.97314 16.5999 2.97314H14.3999C13.8476 2.97314 13.3999 2.52543 13.3999 1.97314ZM6.33325 6.3064C6.88554 6.3064 7.33325 6.75411 7.33325 7.3064V8.63973C7.33325 9.19201 6.88554 9.63973 6.33325 9.63973C5.78097 9.63973 5.33325 9.19201 5.33325 8.63973V7.3064C5.33325 6.75411 5.78097 6.3064 6.33325 6.3064ZM14.6667 7.3064C14.6667 6.75411 14.219 6.3064 13.6667 6.3064C13.1145 6.3064 12.6667 6.75411 12.6667 7.3064V8.63973C12.6667 9.19201 13.1145 9.63973 13.6667 9.63973C14.219 9.63973 14.6667 9.19201 14.6667 8.63973V7.3064ZM8.39669 11.8053C7.93589 11.5009 7.31555 11.6276 7.01111 12.0884C6.70667 12.5492 6.83343 13.1696 7.29422 13.474C7.91087 13.8814 8.83363 14.3063 9.99999 14.3063C11.1664 14.3063 12.0891 13.8814 12.7058 13.474C13.1666 13.1696 13.2933 12.5492 12.9889 12.0884C12.6844 11.6276 12.0641 11.5009 11.6033 11.8053C11.2109 12.0646 10.667 12.3063 9.99999 12.3063C9.33302 12.3063 8.78912 12.0646 8.39669 11.8053ZM10.9999 7.3064C10.9999 6.75411 10.5522 6.3064 9.99994 6.3064C9.44765 6.3064 8.99994 6.75411 8.99994 7.3064V9.67568C8.57711 9.79238 8.2666 10.1798 8.2666 10.6397C8.2666 11.192 8.71432 11.6397 9.2666 11.6397C10.1319 11.6397 10.9999 10.9809 10.9999 9.97306V7.3064ZM18.0666 12.3064C18.6189 12.3064 19.0666 12.7541 19.0666 13.3064V15.3064C19.0666 16.6829 17.8707 17.6397 16.5999 17.6397H14.3999C13.8476 17.6397 13.3999 17.192 13.3999 16.6397C13.3999 16.0874 13.8476 15.6397 14.3999 15.6397H16.5999C16.7591 15.6397 16.8852 15.5814 16.9644 15.5094C17.0421 15.4388 17.0666 15.3661 17.0666 15.3064V13.3064C17.0666 12.7541 17.5143 12.3064 18.0666 12.3064ZM2.93335 13.3064C2.93335 12.7541 2.48563 12.3064 1.93335 12.3064C1.38106 12.3064 0.93335 12.7541 0.93335 13.3064V15.3064C0.93335 16.6829 2.12922 17.6397 3.40002 17.6397H5.60002C6.1523 17.6397 6.60002 17.192 6.60002 16.6397C6.60002 16.0874 6.1523 15.6397 5.60002 15.6397H3.40002C3.2408 15.6397 3.11471 15.5814 3.03548 15.5094C2.95784 15.4388 2.93335 15.3661 2.93335 15.3064V13.3064Z" fill="#272727"/>
</svg>
