<svg width="23" height="24" viewBox="0 0 23 24" fill="none" xmlns="http://www.w3.org/2000/svg">
<path d="M22.9478 12.2053C22.9478 6.00533 17.9217 0.979279 11.7217 0.979279C5.52178 0.979279 0.495728 6.00533 0.495728 12.2053C0.495728 17.8085 4.60092 22.4528 9.96767 23.2949V15.4503H7.11732V12.2053H9.96767V9.73206C9.96767 6.91854 11.6437 5.36444 14.2079 5.36444C15.4361 5.36444 16.7208 5.5837 16.7208 5.5837V8.34635H15.3052C13.9107 8.34635 13.4758 9.21169 13.4758 10.0995V12.2053H16.5893L16.0916 15.4503H13.4758V23.2949C18.8426 22.4528 22.9478 17.8085 22.9478 12.2053Z" fill="#1877F2"/>
<path d="M16.0915 15.4503L16.5893 12.2053H13.4758V10.0995C13.4758 9.21169 13.9107 8.34635 15.3052 8.34635H16.7208V5.5837C16.7208 5.5837 15.4361 5.36444 14.2079 5.36444C11.6436 5.36444 9.96766 6.91854 9.96766 9.73206V12.2053H7.11731V15.4503H9.96766V23.2949C11.13 23.4768 12.3135 23.4768 13.4758 23.2949V15.4503H16.0915Z" fill="white"/>
</svg>
