<svg width="38" height="36" viewBox="0 0 38 36" fill="none" xmlns="http://www.w3.org/2000/svg">
<mask id="path-1-inside-1_1210_3820" fill="white">
<path fill-rule="evenodd" clip-rule="evenodd" d="M18.0805 34.8023C18.2543 34.9348 18.4629 35 18.6714 35V35.0022C18.8778 35.0022 19.0864 34.9348 19.2624 34.8045C27.0575 28.9798 32.4151 23.379 35.1873 18.1518C38.1702 12.527 37.5119 8.53384 36.4365 6.17227C34.1944 1.25358 28.3741 -0.712588 24.042 0.228132C21.574 0.762583 19.7229 2.11609 18.6714 4.05184C17.6199 2.11609 15.7689 0.764755 13.3008 0.228132C8.96875 -0.712588 3.14845 1.25358 0.906369 6.17227C-0.171222 8.53384 -0.827336 12.527 2.15559 18.1518C4.92561 23.379 10.2832 28.9798 18.0805 34.8023Z"/>
</mask>
<path fill-rule="evenodd" clip-rule="evenodd" d="M18.0805 34.8023C18.2543 34.9348 18.4629 35 18.6714 35V35.0022C18.8778 35.0022 19.0864 34.9348 19.2624 34.8045C27.0575 28.9798 32.4151 23.379 35.1873 18.1518C38.1702 12.527 37.5119 8.53384 36.4365 6.17227C34.1944 1.25358 28.3741 -0.712588 24.042 0.228132C21.574 0.762583 19.7229 2.11609 18.6714 4.05184C17.6199 2.11609 15.7689 0.764755 13.3008 0.228132C8.96875 -0.712588 3.14845 1.25358 0.906369 6.17227C-0.171222 8.53384 -0.827336 12.527 2.15559 18.1518C4.92561 23.379 10.2832 28.9798 18.0805 34.8023Z" fill="#FF3434"/>
<path d="M18.6714 35H20.6714V33H18.6714V35ZM18.0805 34.8023L19.2932 33.2119L19.2852 33.2058L19.2771 33.1998L18.0805 34.8023ZM18.6714 35.0022H16.6714V37.0022H18.6714V35.0022ZM19.2624 34.8045L20.4528 36.4116L20.4595 36.4066L19.2624 34.8045ZM35.1873 18.1518L36.9541 19.0888L36.9542 19.0888L35.1873 18.1518ZM36.4365 6.17227L38.2566 5.3434L38.2563 5.34272L36.4365 6.17227ZM24.042 0.228132L24.4653 2.18283L24.4664 2.18258L24.042 0.228132ZM18.6714 4.05184L16.914 5.00651L18.6714 8.24181L20.4289 5.00651L18.6714 4.05184ZM13.3008 0.228132L13.7258 -1.72621L13.7253 -1.72632L13.3008 0.228132ZM0.906369 6.17227L2.7259 7.00252L2.72622 7.00181L0.906369 6.17227ZM2.15559 18.1518L3.92279 17.2153L3.9225 17.2148L2.15559 18.1518ZM18.6714 33C18.8781 33 19.1007 33.0652 19.2932 33.2119L16.8678 36.3927C17.4079 36.8045 18.0476 37 18.6714 37V33ZM20.6714 35.0022V35H16.6714V35.0022H20.6714ZM18.0719 33.1974C18.2373 33.0748 18.4454 33.0022 18.6714 33.0022V37.0022C19.3102 37.0022 19.9354 36.7949 20.4528 36.4116L18.0719 33.1974ZM33.4204 17.2147C30.8481 22.0649 25.7581 27.4542 18.0652 33.2023L20.4595 36.4066C28.357 30.5055 33.982 24.6931 36.9541 19.0888L33.4204 17.2147ZM34.6163 7.00113C35.4261 8.77936 36.122 12.1204 33.4203 17.2148L36.9542 19.0888C40.2184 12.9337 39.5977 8.28833 38.2566 5.3434L34.6163 7.00113ZM24.4664 2.18258C28.069 1.40028 32.8402 3.10466 34.6166 7.00181L38.2563 5.34272C35.5486 -0.597492 28.6792 -2.82546 23.6176 -1.72632L24.4664 2.18258ZM20.4289 5.00651C21.1734 3.63589 22.5041 2.60753 24.4653 2.18283L23.6187 -1.72656C20.6439 -1.08236 18.2725 0.596291 16.914 3.09718L20.4289 5.00651ZM12.8759 2.18247C14.8397 2.60945 16.17 3.63688 16.914 5.00651L20.4289 3.09718C19.0698 0.595298 16.6981 -1.07994 13.7258 -1.72621L12.8759 2.18247ZM2.72622 7.00181C4.50266 3.10466 9.27387 1.40028 12.8764 2.18258L13.7253 -1.72632C8.66364 -2.82546 1.79425 -0.597492 -0.913482 5.34272L2.72622 7.00181ZM3.9225 17.2148C1.22037 12.1195 1.91525 8.77908 2.7259 7.00252L-0.913158 5.34201C-2.2577 8.28861 -2.87504 12.9346 0.388682 19.0888L3.9225 17.2148ZM19.2771 33.1998C11.5823 27.4539 6.4927 22.0649 3.92279 17.2153L0.388393 19.0883C3.35853 24.6931 8.98397 30.5058 16.8838 36.4048L19.2771 33.1998Z" fill="#272727" mask="url(#path-1-inside-1_1210_3820)"/>
</svg>
