<svg width="22" height="19" viewBox="0 0 22 19" fill="none" xmlns="http://www.w3.org/2000/svg">
<path d="M18.4924 5.16239H15.6885C15.5038 5.16194 15.3259 5.23163 15.1907 5.35737C15.0555 5.48311 14.9731 5.65552 14.9602 5.8397L14.5887 11.0616C14.5706 11.2418 14.486 11.4089 14.3513 11.5301C14.2166 11.6513 14.0416 11.7179 13.8604 11.717H8.03408C7.85403 11.7181 7.67997 11.6525 7.54547 11.5328C7.41097 11.4131 7.32559 11.2478 7.30578 11.0689L6.94164 5.8397C6.93151 5.77493 6.91442 5.71145 6.89066 5.65035L6.73043 3.05034C6.72001 2.94933 6.73083 2.84727 6.76218 2.75069C6.79354 2.65412 6.84474 2.56517 6.9125 2.48955C6.98142 2.41319 7.06572 2.35229 7.15987 2.31087C7.25402 2.26944 7.35587 2.24843 7.45873 2.24921H14.4358C14.6289 2.24921 14.8142 2.32594 14.9508 2.46252C15.0874 2.59911 15.1641 2.78435 15.1641 2.97751C15.1641 3.17066 15.2408 3.35591 15.3774 3.49249C15.514 3.62907 15.6992 3.7058 15.8924 3.7058C16.0855 3.7058 16.2708 3.62907 16.4074 3.49249C16.5439 3.35591 16.6207 3.17066 16.6207 2.97751C16.5981 2.41332 16.358 1.87978 15.9506 1.48875C15.5433 1.09772 15.0004 0.879566 14.4358 0.880018H7.45873C7.15582 0.878964 6.856 0.940907 6.57831 1.06191C6.30062 1.18292 6.05112 1.36035 5.84566 1.58293C5.64021 1.80551 5.48328 2.06837 5.38484 2.35484C5.2864 2.64131 5.2486 2.94512 5.27384 3.24698L5.47048 6.76464L5.8492 11.2C5.88365 11.5604 6.00894 11.9062 6.21334 12.205C5.89048 12.2902 5.58986 12.4443 5.33211 12.6565C5.26133 12.7211 5.20397 12.799 5.16328 12.8857C5.1226 12.9724 5.0994 13.0663 5.09501 13.162C5.09061 13.2577 5.1051 13.3533 5.13766 13.4434C5.17022 13.5335 5.22021 13.6163 5.28477 13.6871C5.34932 13.7579 5.42719 13.8152 5.51392 13.8559C5.60065 13.8966 5.69454 13.9198 5.79023 13.9242C5.88592 13.9286 5.98155 13.9141 6.07164 13.8815C6.16173 13.849 6.24453 13.799 6.3153 13.7344C6.40998 13.6762 7.30578 13.1736 10.9473 13.1736C14.5887 13.1736 15.4845 13.6762 15.5792 13.7344C15.7189 13.8514 15.8973 13.9119 16.0793 13.9038C16.2613 13.8957 16.4337 13.8197 16.5624 13.6907C16.6307 13.623 16.6849 13.5425 16.7218 13.4537C16.7588 13.365 16.7778 13.2698 16.7778 13.1736C16.7778 13.0775 16.7588 12.9823 16.7218 12.8935C16.6849 12.8048 16.6307 12.7242 16.5624 12.6565C16.3026 12.4431 15.9994 12.289 15.6739 12.205C15.8847 11.9034 16.0128 11.5519 16.0453 11.1854L16.4167 6.66996V6.61898H18.4924C18.7766 6.60654 19.0554 6.69915 19.2757 6.87914C19.496 7.05913 19.6423 7.31392 19.6868 7.59489C19.7045 7.74846 19.6889 7.90404 19.6411 8.05106C19.5934 8.19809 19.5146 8.33312 19.41 8.447C19.3065 8.56006 19.1804 8.65021 19.0399 8.71167C18.8995 8.77313 18.7477 8.80453 18.5943 8.80386C18.5363 8.81167 18.4776 8.81167 18.4196 8.80386C18.3162 8.78153 18.2091 8.78199 18.1059 8.8052C18.0027 8.82842 17.9058 8.87384 17.822 8.9383C17.7381 9.00276 17.6693 9.08472 17.6203 9.17847C17.5713 9.27222 17.5433 9.37552 17.5383 9.48118L17.2616 14.703C17.2469 14.8859 17.1637 15.0565 17.0287 15.1808C16.8937 15.305 16.7167 15.3737 16.5333 15.3731H5.36124C5.18342 15.3746 5.01119 15.311 4.87703 15.1943C4.74287 15.0775 4.65605 14.9158 4.63294 14.7395L4.48728 12.0593L4.39261 9.46661C4.38698 9.3616 4.35868 9.25905 4.30965 9.16602C4.26062 9.07298 4.19202 8.99167 4.10857 8.92767C4.01958 8.85972 3.91612 8.8132 3.80623 8.79172C3.69634 8.77025 3.58298 8.77441 3.47495 8.80386C3.41695 8.81167 3.35817 8.81167 3.30016 8.80386C3.14806 8.80352 2.99769 8.77163 2.85854 8.7102C2.71939 8.64877 2.5945 8.55915 2.49176 8.447C2.38593 8.33374 2.30577 8.19899 2.25675 8.05194C2.20774 7.90489 2.19101 7.749 2.20772 7.59489C2.25218 7.31392 2.39851 7.05913 2.6188 6.87914C2.83909 6.69915 3.11792 6.60654 3.40213 6.61898C3.59528 6.61898 3.78053 6.54225 3.91711 6.40567C4.05369 6.26908 4.13042 6.08384 4.13042 5.89068C4.13042 5.69753 4.05369 5.51228 3.91711 5.3757C3.78053 5.23912 3.59528 5.16239 3.40213 5.16239C2.75654 5.15154 2.12953 5.37863 1.64063 5.80038C1.15172 6.22213 0.835106 6.80904 0.751133 7.44924C0.714949 7.80469 0.753253 8.16379 0.863602 8.50361C0.973951 8.84344 1.15392 9.15653 1.39203 9.42291C1.79 9.87772 2.33777 10.1749 2.93602 10.2605L3.03798 12.1467L3.17635 14.856C3.22729 15.3994 3.47978 15.9041 3.88414 16.2707C4.2885 16.6373 4.81543 16.8393 5.36124 16.837H16.5333C17.0849 16.8386 17.6166 16.6315 18.0219 16.2573C18.4271 15.8832 18.6759 15.3695 18.7182 14.8196L18.9585 10.2605C19.5475 10.1793 20.0891 9.89304 20.4879 9.45204C20.7325 9.18346 20.9173 8.8661 21.0303 8.52089C21.1433 8.17567 21.1818 7.81043 21.1434 7.44924C21.0594 6.80904 20.7428 6.22213 20.2539 5.80038C19.765 5.37863 19.138 5.15154 18.4924 5.16239ZM8.03408 17.5434H5.8492C5.65604 17.5434 5.47079 17.6201 5.33421 17.7567C5.19763 17.8933 5.1209 18.0785 5.1209 18.2717C5.1209 18.4648 5.19763 18.6501 5.33421 18.7867C5.47079 18.9233 5.65604 19 5.8492 19H8.03408C8.22723 19 8.41248 18.9233 8.54906 18.7867C8.68564 18.6501 8.76237 18.4648 8.76237 18.2717C8.76237 18.0785 8.68564 17.8933 8.54906 17.7567C8.41248 17.6201 8.22723 17.5434 8.03408 17.5434ZM16.0453 17.5434H13.8604C13.6673 17.5434 13.482 17.6201 13.3455 17.7567C13.2089 17.8933 13.1321 18.0785 13.1321 18.2717C13.1321 18.4648 13.2089 18.6501 13.3455 18.7867C13.482 18.9233 13.6673 19 13.8604 19H16.0453C16.2385 19 16.4237 18.9233 16.5603 18.7867C16.6969 18.6501 16.7736 18.4648 16.7736 18.2717C16.7736 18.0785 16.6969 17.8933 16.5603 17.7567C16.4237 17.6201 16.2385 17.5434 16.0453 17.5434Z" fill="white"/>
<path d="M9.7674 4.49236C9.63556 4.43123 9.48845 4.41094 9.34499 4.4341L9.21389 4.47779L9.0828 4.54334L8.97356 4.63074C8.90725 4.7 8.85528 4.78167 8.82062 4.87107C8.78138 4.96314 8.76155 5.06231 8.76235 5.16239C8.7618 5.25824 8.78017 5.35325 8.81641 5.44199C8.85266 5.53072 8.90606 5.61143 8.97356 5.67948L9.0828 5.76687L9.21389 5.83242L9.34499 5.87612H9.49065C9.58582 5.87497 9.67984 5.85517 9.7674 5.81785C9.8568 5.78319 9.93847 5.73122 10.0077 5.66491C10.076 5.59721 10.1302 5.51666 10.1672 5.42791C10.2041 5.33916 10.2232 5.24397 10.2232 5.14782C10.2232 5.05168 10.2041 4.95649 10.1672 4.86774C10.1302 4.77899 10.076 4.69844 10.0077 4.63074C9.93723 4.56964 9.85563 4.52266 9.7674 4.49236ZM12.2582 4.4341C12.2125 4.44207 12.1684 4.4568 12.1271 4.47779C12.0807 4.49373 12.0366 4.51578 11.996 4.54334L11.8867 4.63074C11.8204 4.7 11.7685 4.78167 11.7338 4.87107C11.6953 4.95825 11.6754 5.05251 11.6754 5.14782C11.6754 5.24314 11.6953 5.3374 11.7338 5.42458C11.7672 5.51462 11.8193 5.59655 11.8867 5.66491L11.996 5.75231C12.0366 5.77987 12.0807 5.80191 12.1271 5.81785C12.1684 5.83885 12.2125 5.85358 12.2582 5.86155H12.4038C12.5967 5.85887 12.7813 5.78343 12.9209 5.65035C12.9872 5.58108 13.0392 5.49941 13.0739 5.41001C13.1124 5.32283 13.1323 5.22857 13.1323 5.13326C13.1323 5.03795 13.1124 4.94368 13.0739 4.85651C13.037 4.76825 12.9852 4.68696 12.9209 4.61617C12.834 4.53361 12.728 4.4738 12.6124 4.44204C12.4968 4.41027 12.3751 4.40755 12.2582 4.4341ZM10.6705 8.7456C10.758 8.78292 10.8521 8.80271 10.9472 8.80386H11.0929C11.1385 8.79589 11.1827 8.78116 11.224 8.76016C11.2704 8.74422 11.3145 8.72218 11.3551 8.69462L11.4643 8.60722C11.6009 8.464 11.6766 8.27344 11.6755 8.07557C11.678 7.98003 11.658 7.88525 11.6173 7.79882C11.5839 7.70877 11.5318 7.62684 11.4643 7.55848C11.3619 7.45742 11.2319 7.38897 11.0906 7.36175C10.9493 7.33453 10.8031 7.34976 10.6705 7.40554C10.5804 7.4389 10.4985 7.49104 10.4301 7.55848C10.3619 7.62618 10.3077 7.70673 10.2707 7.79548C10.2338 7.88423 10.2147 7.97942 10.2147 8.07557C10.2147 8.17171 10.2338 8.2669 10.2707 8.35565C10.3077 8.4444 10.3619 8.52495 10.4301 8.59266C10.4994 8.65896 10.5811 8.71094 10.6705 8.7456Z" fill="white"/>
</svg>
