<svg width="22" height="23" viewBox="0 0 22 23" fill="none" xmlns="http://www.w3.org/2000/svg">
<path d="M21.792 12.0065C21.792 11.1197 21.72 10.4725 21.5643 9.80141H11.4374V13.8042H17.3816C17.2618 14.7989 16.6147 16.297 15.1765 17.3036L15.1563 17.4376L18.3583 19.9181L18.5801 19.9403C20.6174 18.0587 21.792 15.2903 21.792 12.0065Z" fill="#4285F4"/>
<path d="M11.4374 22.5529C14.3496 22.5529 16.7944 21.5941 18.5802 19.9403L15.1766 17.3036C14.2658 17.9388 13.0433 18.3822 11.4374 18.3822C8.58514 18.3822 6.1643 16.5007 5.30133 13.9001L5.17484 13.9108L1.84542 16.4875L1.80188 16.6085C3.57556 20.1319 7.21886 22.5529 11.4374 22.5529Z" fill="#34A853"/>
<path d="M5.3013 13.9001C5.0736 13.229 4.94182 12.5098 4.94182 11.7668C4.94182 11.0238 5.0736 10.3047 5.28932 9.6336L5.28329 9.49066L1.91215 6.8726L1.80185 6.92507C1.07083 8.38719 0.651367 10.0291 0.651367 11.7668C0.651367 13.5046 1.07083 15.1464 1.80185 16.6085L5.3013 13.9001Z" fill="#FBBC05"/>
<path d="M11.4374 5.15138C13.4628 5.15138 14.829 6.02625 15.608 6.75735L18.6521 3.78518C16.7825 2.04744 14.3496 0.980812 11.4374 0.980812C7.21886 0.980812 3.57556 3.40166 1.80188 6.92507L5.28935 9.6336C6.1643 7.03297 8.58514 5.15138 11.4374 5.15138Z" fill="#EB4335"/>
</svg>
