<svg width="21" height="20" viewBox="0 0 21 20" fill="none" xmlns="http://www.w3.org/2000/svg">
<path d="M2.39126 2.76761C1.95018 3.23117 1.60029 3.7815 1.36158 4.38718C1.12286 4.99286 1 5.64203 1 6.29761C1 6.95319 1.12286 7.60235 1.36158 8.20803C1.60029 8.81371 1.95018 9.36405 2.39126 9.82761L10.5 18.3498L18.6088 9.82761C19.4996 8.8914 20 7.62162 20 6.29761C20 4.9736 19.4996 3.70382 18.6088 2.76761C17.718 1.83139 16.5098 1.30543 15.25 1.30543C13.9902 1.30543 12.782 1.83139 11.8912 2.76761L10.5 4.22975L9.10879 2.76761C8.66771 2.30404 8.14408 1.93631 7.56778 1.68543C6.99148 1.43455 6.37381 1.30542 5.75002 1.30542C5.12624 1.30542 4.50857 1.43455 3.93227 1.68543C3.35597 1.93631 2.83234 2.30404 2.39126 2.76761V2.76761Z" stroke="#272727" stroke-width="2" stroke-linecap="round" stroke-linejoin="round"/>
</svg>
