<svg width="27" height="28" viewBox="0 0 27 28" fill="none" xmlns="http://www.w3.org/2000/svg">
<path d="M9.75949 25.3667V21.3859C9.75947 20.3733 10.5962 19.5506 11.6329 19.5438H15.4304C16.472 19.5438 17.3165 20.3685 17.3165 21.3859V25.3791C17.3162 26.2388 18.0188 26.9414 18.8987 26.9615H21.4304C23.9541 26.9615 26 24.9634 26 22.4985V11.1741C25.9865 10.2044 25.5204 9.29387 24.7342 8.70153L16.0759 1.88957C14.5591 0.703475 12.4029 0.703475 10.8861 1.88957L2.26582 8.71389C1.47666 9.30383 1.00972 10.2159 1 11.1865V22.4985C1 24.9634 3.04589 26.9615 5.56962 26.9615H8.10127C9.0031 26.9615 9.73418 26.2475 9.73418 25.3667" fill="white"/>
<path d="M9.75949 25.3667V21.3859C9.75947 20.3733 10.5962 19.5506 11.6329 19.5438H15.4304C16.472 19.5438 17.3165 20.3685 17.3165 21.3859V25.3791C17.3162 26.2388 18.0188 26.9414 18.8987 26.9615H21.4304C23.9541 26.9615 26 24.9634 26 22.4985V11.1741C25.9865 10.2044 25.5204 9.29387 24.7342 8.70153L16.0759 1.88957C14.5591 0.703475 12.4029 0.703475 10.8861 1.88957L2.26582 8.71389C1.47666 9.30383 1.00972 10.2159 1 11.1865V22.4985C1 24.9634 3.04589 26.9615 5.56962 26.9615H8.10127C9.0031 26.9615 9.73418 26.2475 9.73418 25.3667" stroke="#272727" stroke-width="2" stroke-linecap="round" stroke-linejoin="round"/>
</svg>
