<svg width="25" height="26" viewBox="0 0 25 26" fill="none" xmlns="http://www.w3.org/2000/svg">
<path d="M8.75949 24.3667V20.3859C8.75947 19.3733 9.59621 18.5506 10.6329 18.5438H14.4304C15.472 18.5438 16.3165 19.3685 16.3165 20.3859V24.3791C16.3162 25.2388 17.0188 25.9414 17.8987 25.9615H20.4304C22.9541 25.9615 25 23.9634 25 21.4985V10.1741C24.9865 9.20444 24.5204 8.29387 23.7342 7.70153L15.0759 0.889574C13.5591 -0.296525 11.4029 -0.296525 9.88608 0.889574L1.26582 7.71389C0.476656 8.30383 0.00971933 9.21591 0 10.1865V21.4985C0 23.9634 2.04589 25.9615 4.56962 25.9615H7.10127C8.0031 25.9615 8.73418 25.2475 8.73418 24.3667" fill="#F37C49"/>
</svg>
