<svg width="13" height="13" viewBox="0 0 13 13" fill="none" xmlns="http://www.w3.org/2000/svg">
<path d="M5.2 6.60498H0.65C0.477609 6.60498 0.312279 6.66824 0.190381 6.78085C0.0684819 6.89345 0 7.04618 0 7.20543V11.4086C0 11.5678 0.0684819 11.7206 0.190381 11.8332C0.312279 11.9458 0.477609 12.009 0.65 12.009H5.2C5.37239 12.009 5.53772 11.9458 5.65962 11.8332C5.78152 11.7206 5.85 11.5678 5.85 11.4086V7.20543C5.85 7.04618 5.78152 6.89345 5.65962 6.78085C5.53772 6.66824 5.37239 6.60498 5.2 6.60498ZM4.55 10.8081H1.3V7.80588H4.55V10.8081ZM12.35 0H7.8C7.62761 0 7.46228 0.0632617 7.34038 0.175868C7.21848 0.288475 7.15 0.441203 7.15 0.600452V4.80362C7.15 4.96287 7.21848 5.1156 7.34038 5.2282C7.46228 5.34081 7.62761 5.40407 7.8 5.40407H12.35C12.5224 5.40407 12.6877 5.34081 12.8096 5.2282C12.9315 5.1156 13 4.96287 13 4.80362V0.600452C13 0.441203 12.9315 0.288475 12.8096 0.175868C12.6877 0.0632617 12.5224 0 12.35 0ZM11.7 4.20317H8.45V1.2009H11.7V4.20317ZM12.35 6.60498H7.8C7.62761 6.60498 7.46228 6.66824 7.34038 6.78085C7.21848 6.89345 7.15 7.04618 7.15 7.20543V11.4086C7.15 11.5678 7.21848 11.7206 7.34038 11.8332C7.46228 11.9458 7.62761 12.009 7.8 12.009H12.35C12.5224 12.009 12.6877 11.9458 12.8096 11.8332C12.9315 11.7206 13 11.5678 13 11.4086V7.20543C13 7.04618 12.9315 6.89345 12.8096 6.78085C12.6877 6.66824 12.5224 6.60498 12.35 6.60498ZM11.7 10.8081H8.45V7.80588H11.7V10.8081ZM5.2 0H0.65C0.477609 0 0.312279 0.0632617 0.190381 0.175868C0.0684819 0.288475 0 0.441203 0 0.600452V4.80362C0 4.96287 0.0684819 5.1156 0.190381 5.2282C0.312279 5.34081 0.477609 5.40407 0.65 5.40407H5.2C5.37239 5.40407 5.53772 5.34081 5.65962 5.2282C5.78152 5.1156 5.85 4.96287 5.85 4.80362V0.600452C5.85 0.441203 5.78152 0.288475 5.65962 0.175868C5.53772 0.0632617 5.37239 0 5.2 0ZM4.55 4.20317H1.3V1.2009H4.55V4.20317Z" fill="#272727"/>
</svg>
