<svg width="16" height="21" viewBox="0 0 16 21" fill="none" xmlns="http://www.w3.org/2000/svg">
<g filter="url(#filter0_d_1544_4368)">
<path d="M4.01026 6.3587C4.02399 6.31392 4.03338 6.26698 4.05143 6.22364C4.10054 6.10592 4.12871 6.08569 4.20816 5.98892L9.98959 0.208202C10.0625 0.148257 10.1369 0.0875898 10.2236 0.0514784C10.5298 -0.0756338 10.9162 0.0406445 11.1011 0.317258C11.2593 0.554149 11.2593 0.883487 11.1011 1.12038C11.0751 1.1601 11.0412 1.19332 11.0115 1.23015L5.74145 6.50025L11.0115 11.7696L11.1011 11.8794C11.1235 11.9213 11.1495 11.961 11.1675 12.0044C11.2947 12.3099 11.182 12.6941 10.9018 12.8819C10.6649 13.04 10.3355 13.04 10.0986 12.8819C10.0596 12.8551 10.0257 12.8219 9.98959 12.7916L4.20816 7.01087C4.17854 6.97404 4.1446 6.94081 4.1186 6.90109C4.06588 6.82237 4.02904 6.73426 4.01026 6.64109C3.99221 6.54864 4.0016 6.45331 4.01026 6.3587Z" fill="#858585"/>
</g>
<defs>
<filter id="filter0_d_1544_4368" x="0" y="0" width="15.2197" height="21.0005" filterUnits="userSpaceOnUse" color-interpolation-filters="sRGB">
<feFlood flood-opacity="0" result="BackgroundImageFix"/>
<feColorMatrix in="SourceAlpha" type="matrix" values="0 0 0 0 0 0 0 0 0 0 0 0 0 0 0 0 0 0 127 0" result="hardAlpha"/>
<feOffset dy="4"/>
<feGaussianBlur stdDeviation="2"/>
<feComposite in2="hardAlpha" operator="out"/>
<feColorMatrix type="matrix" values="0 0 0 0 0 0 0 0 0 0 0 0 0 0 0 0 0 0 0.25 0"/>
<feBlend mode="normal" in2="BackgroundImageFix" result="effect1_dropShadow_1544_4368"/>
<feBlend mode="normal" in="SourceGraphic" in2="effect1_dropShadow_1544_4368" result="shape"/>
</filter>
</defs>
</svg>
