<svg width="38" height="35" viewBox="0 0 38 35" fill="none" xmlns="http://www.w3.org/2000/svg">
<g clip-path="url(#clip0_978_3253)">
<path d="M18.6714 35C18.4629 35 18.2543 34.9348 18.0805 34.8023C10.2832 28.9798 4.92561 23.379 2.15559 18.1518C-0.827336 12.527 -0.171222 8.53384 0.906369 6.17227C3.14845 1.25358 8.96875 -0.712588 13.3008 0.228132C15.7689 0.764755 17.6199 2.11609 18.6714 4.05184C19.7229 2.11609 21.574 0.762583 24.042 0.228132C28.3741 -0.712588 34.1944 1.25358 36.4365 6.17227C37.5119 8.53384 38.1702 12.527 35.1873 18.1518C32.4151 23.379 27.0575 28.9798 19.2624 34.8045C19.0864 34.9348 18.8778 35.0022 18.6714 35.0022V35ZM11.0566 1.9727C7.8325 1.9727 4.23474 3.63688 2.70525 6.9935C1.30395 10.0698 0.09166 18.6971 18.6714 32.7731C37.2534 18.6971 36.0389 10.0698 34.6376 6.9935C32.8083 2.98294 28.0287 1.38828 24.4613 2.16171C21.411 2.82435 19.6599 5.03384 19.6599 8.22751C19.6599 8.77283 19.2167 9.21603 18.6714 9.21603C18.1261 9.21603 17.6829 8.77283 17.6829 8.22751C17.6829 5.03602 15.934 2.82435 12.8815 2.16171C12.2993 2.0357 11.6845 1.9727 11.0566 1.9727Z" fill="#EAEAEA"/>
</g>
<defs>
<clipPath id="clip0_978_3253">
<rect width="37.342" height="35" fill="white"/>
</clipPath>
</defs>
</svg>
