<svg width="14" height="14" viewBox="0 0 14 14" fill="none" xmlns="http://www.w3.org/2000/svg">
<path d="M2.41368 3.86204C3.08023 3.86204 3.62058 3.32169 3.62058 2.65514C3.62058 1.98859 3.08023 1.44824 2.41368 1.44824C1.74713 1.44824 1.20679 1.98859 1.20679 2.65514C1.20679 3.32169 1.74713 3.86204 2.41368 3.86204Z" fill="#272727"/>
<path d="M6.03442 2.89648H12.793" stroke="#272727" stroke-width="2" stroke-miterlimit="10" stroke-linecap="round" stroke-linejoin="round"/>
<path d="M2.41368 8.20701C3.08023 8.20701 3.62058 7.66666 3.62058 7.00011C3.62058 6.33356 3.08023 5.79321 2.41368 5.79321C1.74713 5.79321 1.20679 6.33356 1.20679 7.00011C1.20679 7.66666 1.74713 8.20701 2.41368 8.20701Z" fill="#272727"/>
<path d="M6.03442 7.24146H12.793" stroke="#272727" stroke-width="2" stroke-miterlimit="10" stroke-linecap="round" stroke-linejoin="round"/>
<path d="M2.41368 12.5517C3.08023 12.5517 3.62058 12.0114 3.62058 11.3448C3.62058 10.6783 3.08023 10.1379 2.41368 10.1379C1.74713 10.1379 1.20679 10.6783 1.20679 11.3448C1.20679 12.0114 1.74713 12.5517 2.41368 12.5517Z" fill="#272727"/>
<path d="M6.03442 11.5862H12.793" stroke="#272727" stroke-width="2" stroke-miterlimit="10" stroke-linecap="round" stroke-linejoin="round"/>
</svg>
