<svg width="26" height="24" viewBox="0 0 26 24" fill="none" xmlns="http://www.w3.org/2000/svg">
<path d="M24.5 0H21.5C21.1022 0 20.7206 0.158036 20.4393 0.43934C20.158 0.720645 20 1.10218 20 1.5C20 1.89782 20.158 2.27936 20.4393 2.56066C20.7206 2.84196 21.1022 3 21.5 3H23V21H21.5C21.1022 21 20.7206 21.158 20.4393 21.4393C20.158 21.7206 20 22.1022 20 22.5C20 22.8978 20.158 23.2794 20.4393 23.5607C20.7206 23.842 21.1022 24 21.5 24H24.5C24.8978 24 25.2794 23.842 25.5607 23.5607C25.842 23.2794 26 22.8978 26 22.5V1.5C26 1.10218 25.842 0.720645 25.5607 0.43934C25.2794 0.158036 24.8978 0 24.5 0ZM13.7 5.1C13.4613 4.78174 13.106 4.57134 12.7121 4.51508C12.3183 4.45881 11.9183 4.56131 11.6 4.8C11.2817 5.03869 11.0713 5.39404 11.0151 5.78787C10.9588 6.18169 11.0613 6.58174 11.3 6.9L14 10.5H2C1.60218 10.5 1.22064 10.658 0.93934 10.9393C0.658035 11.2206 0.5 11.6022 0.5 12C0.5 12.3978 0.658035 12.7794 0.93934 13.0607C1.22064 13.342 1.60218 13.5 2 13.5H14.135L11.555 17.16C11.4399 17.3212 11.3579 17.5036 11.3137 17.6967C11.2694 17.8898 11.2639 18.0898 11.2974 18.285C11.3308 18.4803 11.4026 18.667 11.5087 18.8343C11.6147 19.0016 11.7528 19.1463 11.915 19.26C12.17 19.438 12.474 19.5324 12.785 19.53C13.023 19.5289 13.2573 19.4712 13.4685 19.3616C13.6798 19.2521 13.862 19.0939 14 18.9L18.23 12.9C18.4177 12.6431 18.5189 12.3332 18.5189 12.015C18.5189 11.6968 18.4177 11.3869 18.23 11.13L13.7 5.1Z" fill="#272727"/>
</svg>
