<svg width="37" height="43" viewBox="0 0 37 43" fill="none" xmlns="http://www.w3.org/2000/svg">
<path d="M9.63645 28.9308C9.44569 28.1089 9.9023 27.2728 10.6998 26.9988L13.2406 26.1038L12.784 24.8172C11.7206 21.8077 13.3076 18.4917 16.3212 17.4303C19.3369 16.3689 22.6589 17.9519 23.7223 20.9614L24.1789 22.248L26.7197 21.3511C27.5173 21.069 28.398 21.4343 28.7633 22.1892L34.6424 34.2619L36.2375 14.4106C36.3288 13.2579 35.5394 12.2209 34.411 11.9977L30.7967 11.2935L31.1539 9.46096C31.9941 5.16478 29.1854 0.994413 24.8852 0.148164C20.5829 -0.689967 16.4044 2.1126 15.5582 6.40878L15.201 8.24131L11.5867 7.53711C10.4502 7.31185 9.32799 7.97546 8.97894 9.07944L0.110576 37.0645C-0.313563 38.3998 0.524568 39.8102 1.90454 40.0842L12.6927 42.1988L9.63645 28.9308ZM30.1494 14.6176C30.0418 15.1655 29.5101 15.5227 28.9622 15.4151C28.4142 15.3076 28.0571 14.7759 28.1646 14.228C28.2722 13.6821 28.8039 13.3249 29.3518 13.4324C29.8916 13.54 30.2569 14.0717 30.1494 14.6176ZM17.5591 6.80654C18.1903 3.61433 21.2972 1.52408 24.5016 2.1471C27.708 2.76809 29.7922 5.87912 29.1692 9.07944L28.812 10.912L17.202 8.63906L17.5591 6.80654ZM15.7489 10.7699C16.2969 10.8795 16.654 11.4092 16.5465 11.9571C16.4369 12.503 15.9072 12.8602 15.3573 12.7526C14.8093 12.645 14.4522 12.1133 14.5617 11.5674C14.6612 11.0195 15.1929 10.6623 15.7489 10.7699Z" fill="#EB690A"/>
<path d="M21.7951 21.4505C21.0057 19.2121 18.5319 18.0269 16.2813 18.8224C14.0389 19.6098 12.8496 22.0816 13.6472 24.3281L14.1038 25.6147L22.2517 22.7452L21.7951 21.4505Z" fill="#EB690A"/>
<path d="M17.5464 27.4961C17.1649 27.628 16.9559 28.0521 17.0979 28.4417C17.2298 28.8233 17.654 29.0303 18.0457 28.8902C18.4272 28.7563 18.6342 28.3342 18.4941 27.9446C18.3602 27.563 17.9361 27.356 17.5464 27.4961Z" fill="#EB690A"/>
<path d="M18.0457 25.5235C18.4273 25.3896 18.6343 24.9675 18.4942 24.5779C18.3603 24.1963 17.9382 23.9893 17.5465 24.1294C17.1569 24.2714 16.958 24.6854 17.098 25.075C17.2401 25.4566 17.6642 25.6636 18.0457 25.5235Z" fill="#EB690A"/>
</svg>
