<svg width="22" height="25" viewBox="0 0 22 25" fill="none" xmlns="http://www.w3.org/2000/svg">
<path d="M15.5899 6.30813C15.5899 6.49294 15.579 6.67775 15.5585 6.86124C15.5532 6.90925 15.5472 6.95718 15.5406 7.00499C15.5551 6.91225 15.5696 6.81686 15.5812 6.72413C15.5743 6.76996 15.5667 6.81567 15.5585 6.86124C15.493 7.22574 15.3873 7.58154 15.2429 7.92596C15.2238 7.97158 15.2039 8.01699 15.1835 8.0622C15.2212 7.97741 15.2618 7.89262 15.2996 7.80784C15.2812 7.84745 15.2623 7.88683 15.2429 7.92596C15.0759 8.26292 14.8723 8.58195 14.6321 8.8802C14.6054 8.91339 14.5782 8.94632 14.5506 8.97898C14.6115 8.90744 14.6725 8.8359 14.7335 8.76436C14.7003 8.8034 14.6665 8.84201 14.6321 8.8802C14.3902 9.149 14.1194 9.39647 13.8253 9.61771C13.7811 9.65093 13.7364 9.68357 13.6912 9.71559C13.7696 9.65995 13.848 9.6043 13.9264 9.54866C13.8929 9.572 13.8592 9.59502 13.8253 9.61771C13.4962 9.83775 13.1439 10.0269 12.7716 10.1809C12.729 10.1985 12.6862 10.2156 12.6432 10.2323C12.7361 10.1978 12.829 10.1607 12.9219 10.1263C12.872 10.1451 12.8219 10.1633 12.7716 10.1809C12.3915 10.3136 11.9987 10.4104 11.5963 10.47C11.5496 10.477 11.5027 10.4834 11.4558 10.4893C11.5574 10.476 11.6619 10.4628 11.7635 10.4522C11.7078 10.4589 11.6521 10.4648 11.5963 10.47C11.1992 10.5072 10.8007 10.5072 10.4036 10.47C10.3479 10.4648 10.2921 10.4589 10.2364 10.4522C10.338 10.4654 10.4426 10.4787 10.5442 10.4893C10.4972 10.4834 10.4503 10.477 10.4036 10.47C10.0009 10.4104 9.60776 10.3134 9.22733 10.1805C9.17735 10.1631 9.12759 10.145 9.07805 10.1263C9.17095 10.1607 9.26386 10.1978 9.35676 10.2323C9.31335 10.2155 9.27021 10.1982 9.22733 10.1805C8.85812 10.0281 8.50855 9.84231 8.18176 9.62307C8.14541 9.59868 8.10933 9.57388 8.07355 9.54866C8.15193 9.6043 8.23032 9.65995 8.30871 9.71559C8.26593 9.68529 8.22361 9.65444 8.18176 9.62307C7.88725 9.40226 7.61611 9.15519 7.37371 8.88674C7.33731 8.84643 7.30155 8.80563 7.26646 8.76436C7.32743 8.8359 7.3884 8.90744 7.44936 8.97898C7.42379 8.94846 7.39857 8.91772 7.37371 8.88674C7.13262 8.58635 6.92532 8.2648 6.75665 7.92504C6.73737 7.88621 6.7186 7.84714 6.70034 7.80784C6.73808 7.89262 6.77872 7.97741 6.81647 8.0622C6.79584 8.01669 6.7759 7.97097 6.75665 7.92504C6.61123 7.57812 6.50512 7.21965 6.43982 6.85236C6.43224 6.80974 6.42521 6.76699 6.41873 6.72413C6.43325 6.81686 6.44776 6.91225 6.45937 7.00499C6.45205 6.95414 6.44553 6.90327 6.43982 6.85236C6.39912 6.48996 6.39912 6.1263 6.43982 5.76389C6.44553 5.71299 6.45205 5.66211 6.45937 5.61127C6.44486 5.70401 6.43034 5.79939 6.41873 5.89213C6.42521 5.84927 6.43224 5.80652 6.43982 5.76389C6.50518 5.39629 6.61141 5.03751 6.75704 4.6903C6.77617 4.64468 6.79598 4.59927 6.81647 4.55405C6.77872 4.63884 6.73808 4.72363 6.70034 4.80842C6.71874 4.76881 6.73764 4.72943 6.75704 4.6903C6.92402 4.35333 7.12762 4.03429 7.36784 3.73603C7.39456 3.70285 7.42173 3.66993 7.44936 3.63727C7.3884 3.70881 7.32743 3.78035 7.26646 3.85189C7.29966 3.81285 7.33346 3.77423 7.36784 3.73603C7.60977 3.46725 7.88049 3.21978 8.17461 2.99855C8.21879 2.96533 8.26349 2.93269 8.30871 2.90067C8.23032 2.95631 8.15193 3.01195 8.07355 3.0676C8.10699 3.04426 8.14068 3.02124 8.17461 2.99855C8.50375 2.77851 8.85607 2.58932 9.22834 2.43538C9.27089 2.41778 9.31369 2.40065 9.35676 2.38398C9.26386 2.41843 9.17095 2.45552 9.07805 2.48997C9.12792 2.47115 9.17802 2.45295 9.22834 2.43538C9.60846 2.30266 10.0012 2.20581 10.4036 2.14621C10.4504 2.1393 10.4972 2.13288 10.5442 2.12697C10.4426 2.14022 10.338 2.15346 10.2364 2.16406C10.2921 2.15738 10.3479 2.15143 10.4036 2.14621C10.8007 2.10907 11.1992 2.10907 11.5963 2.14621C11.6521 2.15143 11.7078 2.15738 11.7635 2.16406C11.6619 2.15081 11.5574 2.13757 11.4558 2.12697C11.5027 2.13288 11.5496 2.1393 11.5963 2.14621C11.9991 2.20587 12.3922 2.30283 12.7726 2.43573C12.8226 2.45319 12.8723 2.47127 12.9219 2.48997C12.829 2.45552 12.7361 2.41843 12.6432 2.38398C12.6866 2.40078 12.7297 2.41803 12.7726 2.43573C13.1418 2.58813 13.4914 2.77395 13.8182 2.99319C13.8545 3.01758 13.8906 3.04238 13.9264 3.0676C13.848 3.01195 13.7696 2.95631 13.6912 2.90067C13.734 2.93097 13.7763 2.96181 13.8182 2.99319C14.1127 3.214 14.3838 3.46109 14.6262 3.72954C14.6626 3.76985 14.6984 3.81064 14.7335 3.85189C14.6725 3.78035 14.6115 3.70881 14.5506 3.63727C14.5761 3.6678 14.6014 3.69856 14.6262 3.72954C14.8673 4.02993 15.0746 4.35146 15.2433 4.69121C15.2626 4.73004 15.2813 4.76911 15.2996 4.80842C15.2618 4.72363 15.2212 4.63884 15.1835 4.55405C15.2041 4.59957 15.224 4.64528 15.2433 4.69121C15.387 5.03404 15.4923 5.38815 15.5578 5.75089C15.5663 5.79783 15.5741 5.84491 15.5812 5.89213C15.5667 5.79939 15.5522 5.70401 15.5406 5.61127C15.547 5.65771 15.5527 5.70426 15.5578 5.75089C15.5779 5.93574 15.5876 6.12193 15.5899 6.30813C15.5928 6.86191 16.1212 7.39449 16.7512 7.36799C17.3783 7.34149 17.9154 6.90165 17.9125 6.30813C17.9067 5.03894 17.4886 3.74061 16.6699 2.70724C16.4493 2.42903 16.2141 2.15611 15.9528 1.90969C15.6886 1.66063 15.3983 1.446 15.0964 1.23668C14.5477 0.85513 13.9351 0.574267 13.2848 0.356995C10.6632 -0.520042 7.50162 0.261607 5.72777 2.23295C5.4839 2.50322 5.25165 2.78408 5.05423 3.08614C4.85681 3.38555 4.70294 3.70351 4.56069 4.02677C4.29359 4.6256 4.15714 5.26151 4.10198 5.90538C3.99456 7.16662 4.35456 8.4835 5.07455 9.56456C5.76841 10.6085 6.81647 11.5041 8.04161 12.0102C8.40161 12.1586 8.77031 12.2964 9.15353 12.3944C9.53385 12.4898 9.91998 12.5428 10.3119 12.5852C11.0261 12.662 11.7548 12.609 12.4603 12.4792C15.1399 11.981 17.3841 9.87457 17.7992 7.40244C17.8602 7.04208 17.9067 6.68173 17.9067 6.31608C17.9096 5.7623 17.3696 5.22972 16.7454 5.25621C16.1183 5.27476 15.5899 5.7146 15.5899 6.30813ZM19.4424 22.8764C18.8734 22.8764 18.3044 22.8764 17.7354 22.8764C16.3796 22.8764 15.0267 22.8764 13.6709 22.8764C12.0393 22.8764 10.4077 22.8764 8.77322 22.8764C7.36517 22.8764 5.95712 22.8764 4.54617 22.8764C3.88715 22.8764 3.22812 22.8817 2.5691 22.8764C2.55577 22.8764 2.54245 22.8763 2.52914 22.8759C2.46997 22.8744 2.41115 22.8697 2.35426 22.8632C2.45587 22.8764 2.56039 22.8897 2.662 22.9003C2.61689 22.8941 2.57266 22.8859 2.52914 22.8759C2.51037 22.8716 2.49172 22.8669 2.47319 22.8619C2.4241 22.8487 2.37583 22.8331 2.32813 22.8155C2.42103 22.8499 2.51394 22.887 2.60684 22.9215C2.56099 22.9037 2.5165 22.8839 2.47319 22.8619C2.45351 22.852 2.43407 22.8416 2.41485 22.8308C2.36926 22.8051 2.32494 22.7771 2.28168 22.7466C2.36007 22.8023 2.43845 22.8579 2.51684 22.9135C2.48178 22.8869 2.44765 22.8593 2.41485 22.8308C2.40051 22.8183 2.38641 22.8056 2.37261 22.7927C2.33956 22.7618 2.30814 22.7298 2.27878 22.6963C2.33975 22.7678 2.40071 22.8393 2.46168 22.9109C2.4292 22.8725 2.39972 22.8331 2.37261 22.7927C2.36009 22.774 2.34807 22.7551 2.3365 22.736C2.31265 22.6965 2.29068 22.6559 2.27007 22.6141C2.30781 22.6989 2.34845 22.7837 2.3862 22.8685C2.36697 22.8252 2.35057 22.7809 2.3365 22.736C2.32874 22.7112 2.32169 22.6863 2.31526 22.6612C2.30696 22.6289 2.29969 22.5963 2.29329 22.5638C2.30781 22.6565 2.32233 22.7519 2.33394 22.8447C2.32517 22.7841 2.31919 22.7229 2.31526 22.6612C2.29841 22.3965 2.31942 22.1238 2.31942 21.8616C2.31942 21.4827 2.31942 21.1065 2.31942 20.7276C2.31942 20.4943 2.33121 20.2629 2.35802 20.0318C2.3638 19.9819 2.37028 19.9321 2.37749 19.8823C2.36297 19.9751 2.34845 20.0705 2.33684 20.1632C2.34341 20.1193 2.35047 20.0755 2.35802 20.0318C2.43364 19.594 2.55877 19.1639 2.73496 18.7501C2.75904 18.6935 2.78407 18.6373 2.81006 18.5813C2.77232 18.6661 2.73168 18.7509 2.69393 18.8357C2.70738 18.8071 2.72106 18.7785 2.73496 18.7501C2.93621 18.3384 3.18456 17.9486 3.47817 17.5858C3.50571 17.5517 3.53365 17.5179 3.56199 17.4844C3.50102 17.5559 3.44005 17.6275 3.37909 17.699C3.41167 17.6609 3.44469 17.6232 3.47817 17.5858C3.77066 17.259 4.0973 16.959 4.45652 16.6914C4.49949 16.6594 4.54292 16.6278 4.58682 16.5968C4.50843 16.6524 4.43004 16.708 4.35166 16.7637C4.38638 16.7393 4.42134 16.7152 4.45652 16.6914C4.85231 16.424 5.27745 16.1975 5.72646 16.0138C5.76159 15.9994 5.79687 15.9853 5.83228 15.9714C5.73938 16.0059 5.64648 16.043 5.55358 16.0774C5.61093 16.0555 5.66856 16.0343 5.72646 16.0138C6.17847 15.8537 6.64692 15.7372 7.12723 15.6671C7.18027 15.6593 7.23346 15.6521 7.28678 15.6455C7.18517 15.6588 7.08066 15.672 6.97904 15.6826C7.02847 15.6768 7.07787 15.6717 7.12723 15.6671C7.50699 15.6317 7.88525 15.6296 8.26806 15.6296C8.79935 15.6296 9.33063 15.6296 9.86191 15.6296C11.1016 15.6296 12.3412 15.6296 13.5809 15.6296C14.011 15.6296 14.4388 15.6275 14.8685 15.6673C14.9173 15.6719 14.9662 15.6769 15.0151 15.6826C14.9135 15.6694 14.809 15.6561 14.7073 15.6455C14.7612 15.6522 14.8149 15.6595 14.8685 15.6673C15.3422 15.7366 15.8076 15.85 16.2556 16.0089C16.3176 16.0309 16.3793 16.0537 16.4405 16.0774C16.3476 16.043 16.2547 16.0059 16.1618 15.9714C16.1932 15.9837 16.2245 15.9962 16.2556 16.0089C16.7067 16.1925 17.1338 16.4192 17.5314 16.6872C17.5687 16.7123 17.6057 16.7378 17.6425 16.7637C17.5641 16.708 17.4857 16.6524 17.4073 16.5968C17.449 16.6265 17.4904 16.6566 17.5314 16.6872C17.8894 16.9541 18.2181 17.2522 18.5113 17.5801C18.5464 17.6193 18.581 17.6589 18.615 17.699C18.5541 17.6275 18.4931 17.5559 18.4321 17.4844C18.4589 17.5161 18.4853 17.548 18.5113 17.5801C18.8043 17.9413 19.0524 18.3293 19.2538 18.7391C19.2695 18.7712 19.285 18.8034 19.3002 18.8357C19.2624 18.7509 19.2218 18.6661 19.1841 18.5813C19.2081 18.6337 19.2313 18.6863 19.2538 18.7391C19.4285 19.1502 19.5559 19.5762 19.6329 20.013C19.6417 20.0629 19.6498 20.113 19.6573 20.1632C19.6428 20.0705 19.6282 19.9751 19.6166 19.8823C19.6226 19.9259 19.628 19.9695 19.6329 20.013C19.6724 20.3691 19.6747 20.7237 19.6747 21.0826C19.6747 21.5198 19.6747 21.957 19.6747 22.3942C19.6747 22.4924 19.6772 22.5906 19.6733 22.6881C19.6712 22.7405 19.6673 22.7928 19.6602 22.8447C19.6747 22.7519 19.6892 22.6565 19.7008 22.5638C19.6939 22.606 19.6846 22.6474 19.6733 22.6881C19.6688 22.7042 19.664 22.7202 19.6588 22.7361C19.6443 22.7809 19.6273 22.825 19.6079 22.8685C19.6457 22.7837 19.6863 22.6989 19.7241 22.6141C19.7046 22.656 19.6828 22.6966 19.6588 22.7361C19.6479 22.7541 19.6365 22.7718 19.6247 22.7894C19.5966 22.831 19.5658 22.8714 19.5324 22.9109C19.5934 22.8393 19.6544 22.7678 19.7153 22.6963C19.6861 22.7283 19.656 22.7594 19.6247 22.7894C19.611 22.8024 19.5971 22.8153 19.583 22.8279C19.5491 22.8581 19.514 22.8867 19.4773 22.9135C19.5557 22.8579 19.6341 22.8023 19.7124 22.7466C19.6703 22.7762 19.6273 22.8032 19.583 22.8279C19.5625 22.8393 19.5418 22.8503 19.5208 22.8609C19.4775 22.8826 19.4331 22.9027 19.3873 22.9215C19.4802 22.887 19.5731 22.8499 19.666 22.8155C19.6186 22.8331 19.57 22.848 19.5208 22.8609C19.5004 22.8662 19.4799 22.8711 19.4593 22.8758C19.4171 22.8852 19.3746 22.8933 19.3321 22.9003C19.4337 22.887 19.5382 22.8738 19.6399 22.8632C19.5814 22.8705 19.5204 22.8733 19.4593 22.8758C19.4537 22.876 19.448 22.8762 19.4424 22.8764C19.1434 22.8791 18.8357 22.993 18.6208 23.1865C18.4205 23.3693 18.2667 23.6713 18.2812 23.9363C18.3102 24.5033 18.7921 25.0041 19.4424 24.9962C20.5718 24.9803 21.5647 24.3073 21.8956 23.3189C22.0263 22.9268 21.9973 22.5055 21.9973 22.1027C21.9973 21.1807 22.0292 20.2665 21.855 19.3524C21.5995 18.0143 20.8621 16.7557 19.8518 15.7674C18.8415 14.7791 17.4828 14.0531 16.0457 13.7298C15.2212 13.5443 14.3909 13.5152 13.549 13.5152C12.6838 13.5152 11.8216 13.5152 10.9564 13.5152C10.1029 13.5152 9.25224 13.5152 8.39871 13.5152C7.53646 13.5152 6.68002 13.5523 5.84099 13.7563C4.41553 14.1008 3.07425 14.8347 2.08426 15.831C1.08557 16.8352 0.362672 18.0965 0.127513 19.4425C-0.029259 20.346 0.00267598 21.2522 0.00267598 22.1637C0.00267598 22.5823 -0.0234526 23.0195 0.142029 23.4196C0.356865 23.9337 0.699442 24.3391 1.20169 24.6438C1.59362 24.8796 2.09007 24.9935 2.55458 24.9988C2.78103 25.0015 3.00748 24.9988 3.23393 24.9988C3.81457 24.9988 4.3923 24.9988 4.97294 24.9988C5.79745 24.9988 6.61905 24.9988 7.44356 24.9988C8.40161 24.9988 9.35966 24.9988 10.3177 24.9988C11.3019 24.9988 12.2832 24.9988 13.2674 24.9988C14.1673 24.9988 15.0644 24.9988 15.9644 24.9988C16.6699 24.9988 17.3754 24.9988 18.0779 24.9988C18.4815 24.9988 18.885 24.9988 19.2886 24.9988C19.3408 24.9988 19.3931 24.9988 19.4453 24.9988C20.0521 24.9988 20.6357 24.5113 20.6066 23.939C20.5778 23.3663 20.1039 22.884 19.4593 22.8758C19.4537 22.876 19.448 22.8762 19.4424 22.8764Z" fill="#F37C49"/>
<path d="M17.7354 22.8764H19.4424C19.448 22.8762 19.4537 22.876 19.4593 22.8758C19.4799 22.8711 19.5004 22.8662 19.5208 22.8609C19.5418 22.8503 19.5625 22.8393 19.583 22.8279C19.5971 22.8153 19.611 22.8024 19.6247 22.7894C19.6365 22.7718 19.6479 22.7541 19.6588 22.7361C19.664 22.7202 19.6688 22.7042 19.6733 22.6881C19.6772 22.5906 19.6747 22.4924 19.6747 22.3942V21.0826C19.6747 20.7237 19.6724 20.3691 19.6329 20.013C19.5559 19.5762 19.4285 19.1502 19.2538 18.7391C19.0524 18.3293 18.8043 17.9413 18.5113 17.5801C18.2181 17.2522 17.8894 16.9541 17.5314 16.6872C17.1338 16.4192 16.7067 16.1925 16.2556 16.0089C15.8076 15.85 15.3422 15.7366 14.8685 15.6673C14.4388 15.6275 14.011 15.6296 13.5809 15.6296H9.86191H8.26806C7.88525 15.6296 7.50699 15.6317 7.12723 15.6671C6.64692 15.7372 6.17847 15.8537 5.72646 16.0138C5.27745 16.1975 4.85231 16.424 4.45652 16.6914C4.0973 16.959 3.77066 17.259 3.47817 17.5858C3.18456 17.9486 2.93621 18.3384 2.73496 18.7501C2.55877 19.1639 2.43364 19.594 2.35802 20.0318C2.33121 20.2629 2.31942 20.4943 2.31942 20.7276V21.8616C2.31942 22.1238 2.29841 22.3965 2.31526 22.6612C2.32169 22.6863 2.32874 22.7112 2.3365 22.736C2.34807 22.7551 2.36009 22.774 2.37261 22.7927C2.38641 22.8056 2.40051 22.8183 2.41485 22.8308C2.43407 22.8416 2.45351 22.852 2.47319 22.8619C2.49172 22.8669 2.51037 22.8716 2.52914 22.8759C2.54245 22.8763 2.55577 22.8764 2.5691 22.8764C3.22812 22.8817 3.88715 22.8764 4.54617 22.8764H8.77322H13.6709H17.7354Z" fill="#F37C49"/>
<path d="M15.5585 6.86124C15.579 6.67775 15.5899 6.49294 15.5899 6.30813C15.5876 6.12193 15.5779 5.93574 15.5578 5.75089C15.4923 5.38815 15.387 5.03404 15.2433 4.69121C15.0746 4.35146 14.8673 4.02993 14.6262 3.72954C14.3838 3.46109 14.1127 3.214 13.8182 2.99319C13.4914 2.77395 13.1418 2.58813 12.7726 2.43573C12.3922 2.30283 11.9991 2.20587 11.5963 2.14621C11.1992 2.10907 10.8007 2.10907 10.4036 2.14621C10.0012 2.20581 9.60846 2.30266 9.22834 2.43538C8.85607 2.58932 8.50375 2.77851 8.17461 2.99855C7.88049 3.21978 7.60977 3.46725 7.36784 3.73603C7.12762 4.03429 6.92402 4.35333 6.75704 4.6903C6.61141 5.03751 6.50518 5.39629 6.43982 5.76389C6.39912 6.1263 6.39912 6.48996 6.43982 6.85236C6.50512 7.21965 6.61123 7.57812 6.75665 7.92504C6.92532 8.2648 7.13262 8.58635 7.37371 8.88674C7.61611 9.15519 7.88725 9.40226 8.18176 9.62307C8.50855 9.84231 8.85812 10.0281 9.22733 10.1805C9.60776 10.3134 10.0009 10.4104 10.4036 10.47C10.8007 10.5072 11.1992 10.5072 11.5963 10.47C11.9987 10.4104 12.3915 10.3136 12.7716 10.1809C13.1439 10.0269 13.4962 9.83775 13.8253 9.61771C14.1194 9.39647 14.3902 9.149 14.6321 8.8802C14.8723 8.58195 15.0759 8.26292 15.2429 7.92596C15.3873 7.58154 15.493 7.22574 15.5585 6.86124Z" fill="#F37C49"/>
</svg>
