<svg width="22" height="25" viewBox="0 0 22 25" fill="none" xmlns="http://www.w3.org/2000/svg">
<path d="M15.5899 6.30813C15.5899 6.5413 15.5725 6.77447 15.5406 7.00499C15.5551 6.91225 15.5696 6.81686 15.5812 6.72413C15.5115 7.18517 15.378 7.63296 15.1835 8.0622C15.2212 7.97741 15.2618 7.89262 15.2996 7.80784C15.1051 8.22648 14.8554 8.61863 14.5506 8.97898C14.6115 8.90744 14.6725 8.8359 14.7335 8.76436C14.4315 9.11942 14.0803 9.44003 13.6912 9.71559C13.7696 9.65995 13.848 9.6043 13.9264 9.54866C13.5315 9.82423 13.1019 10.0547 12.6432 10.2323C12.7361 10.1978 12.829 10.1607 12.9219 10.1263C12.4516 10.3038 11.9609 10.4257 11.4558 10.4893C11.5574 10.476 11.6619 10.4628 11.7635 10.4522C11.2554 10.5131 10.7445 10.5131 10.2364 10.4522C10.338 10.4654 10.4426 10.4787 10.5442 10.4893C10.039 10.4257 9.54837 10.3038 9.07805 10.1263C9.17095 10.1607 9.26386 10.1978 9.35676 10.2323C8.89805 10.0547 8.46838 9.82688 8.07355 9.54866C8.15193 9.6043 8.23032 9.65995 8.30871 9.71559C7.91968 9.44003 7.56839 9.11942 7.26646 8.76436C7.32743 8.8359 7.3884 8.90744 7.44936 8.97898C7.14743 8.61863 6.89485 8.22648 6.70034 7.80784C6.73808 7.89262 6.77872 7.97741 6.81647 8.0622C6.62195 7.63296 6.48841 7.18517 6.41873 6.72413C6.43325 6.81686 6.44776 6.91225 6.45937 7.00499C6.3926 6.5413 6.3926 6.07496 6.45937 5.61127C6.44486 5.70401 6.43034 5.79939 6.41873 5.89213C6.48841 5.43109 6.62195 4.9833 6.81647 4.55405C6.77872 4.63884 6.73808 4.72363 6.70034 4.80842C6.89485 4.38978 7.14453 3.99763 7.44936 3.63727C7.3884 3.70881 7.32743 3.78035 7.26646 3.85189C7.56839 3.49684 7.91968 3.17623 8.30871 2.90067C8.23032 2.95631 8.15193 3.01195 8.07355 3.0676C8.46838 2.79203 8.89805 2.56151 9.35676 2.38398C9.26386 2.41843 9.17095 2.45552 9.07805 2.48997C9.54837 2.31244 10.039 2.19056 10.5442 2.12697C10.4426 2.14022 10.338 2.15346 10.2364 2.16406C10.7445 2.10312 11.2554 2.10312 11.7635 2.16406C11.6619 2.15081 11.5574 2.13757 11.4558 2.12697C11.9609 2.19056 12.4516 2.31244 12.9219 2.48997C12.829 2.45552 12.7361 2.41843 12.6432 2.38398C13.1019 2.56151 13.5315 2.78938 13.9264 3.0676C13.848 3.01195 13.7696 2.95631 13.6912 2.90067C14.0803 3.17623 14.4315 3.49684 14.7335 3.85189C14.6725 3.78035 14.6115 3.70881 14.5506 3.63727C14.8525 3.99763 15.1051 4.38978 15.2996 4.80842C15.2618 4.72363 15.2212 4.63884 15.1835 4.55405C15.378 4.9833 15.5115 5.43109 15.5812 5.89213C15.5667 5.79939 15.5522 5.70401 15.5406 5.61127C15.5725 5.84179 15.587 6.07496 15.5899 6.30813C15.5928 6.86191 16.1212 7.39449 16.7512 7.36799C17.3783 7.34149 17.9154 6.90165 17.9125 6.30813C17.9067 5.03894 17.4886 3.74061 16.6699 2.70724C16.4493 2.42903 16.2141 2.15611 15.9528 1.90969C15.6886 1.66063 15.3983 1.446 15.0964 1.23668C14.5477 0.85513 13.9351 0.574267 13.2848 0.356995C10.6632 -0.520042 7.50162 0.261607 5.72777 2.23295C5.4839 2.50322 5.25165 2.78408 5.05423 3.08614C4.85681 3.38555 4.70294 3.70351 4.56069 4.02677C4.29359 4.6256 4.15714 5.26151 4.10198 5.90538C3.99456 7.16662 4.35456 8.4835 5.07455 9.56456C5.76841 10.6085 6.81647 11.5041 8.04161 12.0102C8.40161 12.1586 8.77031 12.2964 9.15353 12.3944C9.53385 12.4898 9.91998 12.5428 10.3119 12.5852C11.0261 12.662 11.7548 12.609 12.4603 12.4792C15.1399 11.981 17.3841 9.87457 17.7992 7.40244C17.8602 7.04208 17.9067 6.68173 17.9067 6.31608C17.9096 5.7623 17.3696 5.22972 16.7454 5.25621C16.1183 5.27476 15.5899 5.7146 15.5899 6.30813ZM19.4424 22.8764C18.8734 22.8764 18.3044 22.8764 17.7354 22.8764C16.3796 22.8764 15.0267 22.8764 13.6709 22.8764C12.0393 22.8764 10.4077 22.8764 8.77322 22.8764C7.36517 22.8764 5.95712 22.8764 4.54617 22.8764C3.88715 22.8764 3.22812 22.8817 2.5691 22.8764C2.49652 22.8764 2.42394 22.8711 2.35426 22.8632C2.45587 22.8764 2.56039 22.8897 2.662 22.9003C2.54587 22.8844 2.43555 22.8552 2.32813 22.8155C2.42103 22.8499 2.51394 22.887 2.60684 22.9215C2.49071 22.8764 2.38329 22.8182 2.28168 22.7466C2.36007 22.8023 2.43845 22.8579 2.51684 22.9135C2.42974 22.8473 2.34845 22.7758 2.27878 22.6963C2.33975 22.7678 2.40071 22.8393 2.46168 22.9109C2.38329 22.8182 2.32233 22.7201 2.27007 22.6141C2.30781 22.6989 2.34845 22.7837 2.3862 22.8685C2.34265 22.7705 2.31362 22.6671 2.29329 22.5638C2.30781 22.6565 2.32233 22.7519 2.33394 22.8447C2.28749 22.524 2.31942 22.1849 2.31942 21.8616C2.31942 21.4827 2.31942 21.1065 2.31942 20.7276C2.31942 20.4441 2.33684 20.1632 2.37749 19.8823C2.36297 19.9751 2.34845 20.0705 2.33684 20.1632C2.41813 19.62 2.5749 19.0874 2.81006 18.5813C2.77232 18.6661 2.73168 18.7509 2.69393 18.8357C2.92038 18.3535 3.2107 17.9004 3.56199 17.4844C3.50102 17.5559 3.44005 17.6275 3.37909 17.699C3.73037 17.2883 4.13392 16.9174 4.58682 16.5968C4.50843 16.6524 4.43004 16.708 4.35166 16.7637C4.80746 16.4431 5.3039 16.1781 5.83228 15.9714C5.73938 16.0059 5.64648 16.043 5.55358 16.0774C6.10809 15.8654 6.68873 15.7197 7.28678 15.6455C7.18517 15.6588 7.08066 15.672 6.97904 15.6826C7.40872 15.6323 7.83549 15.6296 8.26806 15.6296C8.79935 15.6296 9.33063 15.6296 9.86191 15.6296C11.1016 15.6296 12.3412 15.6296 13.5809 15.6296C14.0599 15.6296 14.5361 15.627 15.0151 15.6826C14.9135 15.6694 14.809 15.6561 14.7073 15.6455C15.3025 15.7197 15.886 15.8628 16.4405 16.0774C16.3476 16.043 16.2547 16.0059 16.1618 15.9714C16.6902 16.1781 17.1867 16.4431 17.6425 16.7637C17.5641 16.708 17.4857 16.6524 17.4073 16.5968C17.8573 16.9174 18.2637 17.2857 18.615 17.699C18.5541 17.6275 18.4931 17.5559 18.4321 17.4844C18.7834 17.9004 19.0737 18.3535 19.3002 18.8357C19.2624 18.7509 19.2218 18.6661 19.1841 18.5813C19.4163 19.0874 19.576 19.6174 19.6573 20.1632C19.6428 20.0705 19.6282 19.9751 19.6166 19.8823C19.6718 20.2824 19.6747 20.6799 19.6747 21.0826C19.6747 21.5198 19.6747 21.957 19.6747 22.3942C19.6747 22.5452 19.6805 22.6963 19.6602 22.8447C19.6747 22.7519 19.6892 22.6565 19.7008 22.5638C19.6834 22.6698 19.6515 22.7705 19.6079 22.8685C19.6457 22.7837 19.6863 22.6989 19.7241 22.6141C19.6747 22.7201 19.6108 22.8182 19.5324 22.9109C19.5934 22.8393 19.6544 22.7678 19.7153 22.6963C19.6428 22.7758 19.5644 22.8499 19.4773 22.9135C19.5557 22.8579 19.6341 22.8023 19.7124 22.7466C19.6108 22.8182 19.5034 22.8738 19.3873 22.9215C19.4802 22.887 19.5731 22.8499 19.666 22.8155C19.5586 22.8552 19.4453 22.8817 19.3321 22.9003C19.4337 22.887 19.5382 22.8738 19.6399 22.8632C19.576 22.8711 19.5092 22.8738 19.4424 22.8764C19.1434 22.8791 18.8357 22.993 18.6208 23.1865C18.4205 23.3693 18.2667 23.6713 18.2812 23.9363C18.3102 24.5033 18.7921 25.0041 19.4424 24.9962C20.5718 24.9803 21.5647 24.3073 21.8956 23.3189C22.0263 22.9268 21.9973 22.5055 21.9973 22.1027C21.9973 21.1807 22.0292 20.2665 21.855 19.3524C21.5995 18.0143 20.8621 16.7557 19.8518 15.7674C18.8415 14.7791 17.4828 14.0531 16.0457 13.7298C15.2212 13.5443 14.3909 13.5152 13.549 13.5152C12.6838 13.5152 11.8216 13.5152 10.9564 13.5152C10.1029 13.5152 9.25224 13.5152 8.39871 13.5152C7.53646 13.5152 6.68002 13.5523 5.84099 13.7563C4.41553 14.1008 3.07425 14.8347 2.08426 15.831C1.08557 16.8352 0.362672 18.0965 0.127513 19.4425C-0.029259 20.346 0.00267598 21.2522 0.00267598 22.1637C0.00267598 22.5823 -0.0234526 23.0195 0.142029 23.4196C0.356865 23.9337 0.699442 24.3391 1.20169 24.6438C1.59362 24.8796 2.09007 24.9935 2.55458 24.9988C2.78103 25.0015 3.00748 24.9988 3.23393 24.9988C3.81457 24.9988 4.3923 24.9988 4.97294 24.9988C5.79745 24.9988 6.61905 24.9988 7.44356 24.9988C8.40161 24.9988 9.35966 24.9988 10.3177 24.9988C11.3019 24.9988 12.2832 24.9988 13.2674 24.9988C14.1673 24.9988 15.0644 24.9988 15.9644 24.9988C16.6699 24.9988 17.3754 24.9988 18.0779 24.9988C18.4815 24.9988 18.885 24.9988 19.2886 24.9988C19.3408 24.9988 19.3931 24.9988 19.4453 24.9988C20.0521 24.9988 20.6357 24.5113 20.6066 23.939C20.5776 23.3613 20.0957 22.8764 19.4424 22.8764Z" fill="black"/>
</svg>
