<svg width="30" height="29" viewBox="0 0 30 29" fill="none" xmlns="http://www.w3.org/2000/svg">
<g clip-path="url(#clip0_1411_4243)">
<path d="M1.25191 23.7456C0.710328 22.6177 0.417342 21.35 0.42622 20.0211C0.470612 15.3874 4.29719 11.5843 9.00272 11.4968C13.9568 11.4094 17.9876 15.3874 17.8988 20.2572C17.8101 24.8209 14.0634 28.5541 9.42888 28.694C7.81302 28.7377 6.28594 28.353 4.97194 27.6449C4.457 27.8984 3.33832 28.4405 2.21077 28.8863C1.41172 29.2011 0.488368 28.8689 0.124355 28.0995V28.0733C-0.0265768 27.7673 -0.0354551 27.4263 0.0710853 27.1115L1.25191 23.7368V23.7456Z" fill="#272727"/>
<path d="M1.60702 27.3563L2.82336 23.7455C2.24627 22.7226 1.90889 21.5511 1.90889 20.3009C1.90889 16.4016 5.11398 13.2454 9.07373 13.2454C13.0335 13.2454 16.2386 16.4016 16.2386 20.3009C16.2386 24.2002 13.0335 27.3563 9.07373 27.3563C7.76861 27.3563 6.53452 27.0066 5.47799 26.4034L1.59814 27.3563H1.60702Z" fill="white" stroke="#272727" stroke-width="0.09" stroke-miterlimit="10"/>
<path d="M28.1177 17.5381C28.8724 15.9557 29.2985 14.1809 29.2985 12.3187C29.2985 5.51673 23.6963 0 16.7889 0C9.88155 0 4.2793 5.51673 4.2793 12.3187C4.2793 19.1206 9.88155 24.6373 16.7889 24.6373C18.9641 24.6373 21.0061 24.0865 22.7907 23.1248C23.6519 23.5532 25.6939 24.5324 27.5584 25.2056C29.7691 25.092 29.9999 22.915 29.9999 22.915L28.1177 17.5381V17.5381Z" fill="#272727"/>
<path d="M28.6238 23.6057L26.2444 17.4682C27.1234 15.9295 27.6206 14.1459 27.6206 12.2575C27.6206 6.36479 22.773 1.58246 16.7801 1.58246C10.7872 1.58246 5.94849 6.36479 5.94849 12.2575C5.94849 18.1501 10.7961 22.9325 16.789 22.9325C18.7688 22.9325 20.6244 22.4079 22.2225 21.4986L28.6238 23.6144V23.6057Z" fill="white" stroke="#272727" stroke-width="0.13" stroke-miterlimit="10"/>
<path d="M11.8437 16.6726H18.4581C19.5856 16.6726 19.5856 14.9503 18.4581 14.9503H11.8437C10.7162 14.9503 10.7162 16.6726 11.8437 16.6726Z" fill="#272727"/>
<path d="M11.8437 13.123H20.6422C21.7697 13.123 21.7697 11.4007 20.6422 11.4007H11.8437C10.7162 11.4007 10.7162 13.123 11.8437 13.123Z" fill="#272727"/>
<path d="M11.8437 9.56465H20.6422C21.7697 9.56465 21.7697 7.84232 20.6422 7.84232H11.8437C10.7162 7.84232 10.7162 9.56465 11.8437 9.56465Z" fill="#272727"/>
</g>
<defs>
<clipPath id="clip0_1411_4243">
<rect width="30" height="29" fill="white"/>
</clipPath>
</defs>
</svg>
