<svg width="32" height="30" viewBox="0 0 32 30" fill="none" xmlns="http://www.w3.org/2000/svg">
<path d="M20.9448 9.68042H3.69615C2.71587 9.68042 1.77574 10.0803 1.08258 10.792C0.389415 11.5037 0 12.469 0 13.4756V26.1261C0 27.1326 0.389415 28.0979 1.08258 28.8097C1.77574 29.5214 2.71587 29.9212 3.69615 29.9212H20.9448C21.9251 29.9212 22.8653 29.5214 23.5584 28.8097C24.2516 28.0979 24.641 27.1326 24.641 26.1261V13.4756C24.641 12.469 24.2516 11.5037 23.5584 10.792C22.8653 10.0803 21.9251 9.68042 20.9448 9.68042ZM3.69615 12.2105H20.9448C21.2716 12.2105 21.585 12.3438 21.816 12.581C22.0471 12.8183 22.1769 13.1401 22.1769 13.4756L12.3205 19.649L2.4641 13.4756C2.4641 13.1401 2.5939 12.8183 2.82496 12.581C3.05601 12.3438 3.36939 12.2105 3.69615 12.2105ZM22.1769 26.1261C22.1769 26.4616 22.0471 26.7834 21.816 27.0206C21.585 27.2578 21.2716 27.3911 20.9448 27.3911H3.69615C3.36939 27.3911 3.05601 27.2578 2.82496 27.0206C2.5939 26.7834 2.4641 26.4616 2.4641 26.1261V16.3599L11.6798 22.1412C11.8671 22.2522 12.0796 22.3107 12.2959 22.3107C12.5121 22.3107 12.7246 22.2522 12.9119 22.1412L22.1769 16.3599V26.1261Z" fill="#272727"/>
<circle cx="25.1104" cy="6.16025" r="6.16025" fill="#858585"/>
<path d="M27.1795 8.48531V8.99731H23.2515V8.58931L25.5795 6.30931C25.8728 6.02131 26.0701 5.77331 26.1715 5.56531C26.2781 5.35198 26.3315 5.13865 26.3315 4.92531C26.3315 4.59465 26.2168 4.33865 25.9875 4.15731C25.7635 3.97065 25.4408 3.87731 25.0195 3.87731C24.3635 3.87731 23.8541 4.08531 23.4915 4.50131L23.0835 4.14931C23.3021 3.89331 23.5795 3.69598 23.9155 3.55731C24.2568 3.41865 24.6408 3.34931 25.0675 3.34931C25.6381 3.34931 26.0888 3.48531 26.4195 3.75731C26.7555 4.02398 26.9235 4.39198 26.9235 4.86131C26.9235 5.14931 26.8595 5.42665 26.7315 5.69331C26.6035 5.95998 26.3608 6.26665 26.0035 6.61331L24.0995 8.48531H27.1795Z" fill="white"/>
</svg>
