<svg width="8" height="13" viewBox="0 0 8 13" fill="none" xmlns="http://www.w3.org/2000/svg">
<path d="M7.20946 6.64179C7.19574 6.68657 7.18635 6.73351 7.1683 6.77685C7.11918 6.89457 7.09102 6.91479 7.01157 7.01157L1.23013 12.7923C1.15719 12.8522 1.0828 12.9129 0.996133 12.949C0.689908 13.0761 0.303516 12.9598 0.118626 12.6832C-0.039542 12.4463 -0.039542 12.117 0.118626 11.8801C0.144626 11.8404 0.178571 11.8072 0.208182 11.7703L5.47828 6.50023L0.208182 1.23086L0.118626 1.12108C0.0962369 1.07919 0.0702367 1.03947 0.052181 0.996133C-0.0749312 0.69063 0.0377364 0.306405 0.317961 0.118626C0.554852 -0.039542 0.884188 -0.039542 1.12108 0.118626C1.16008 0.145348 1.19402 0.178571 1.23013 0.208904L7.01157 5.98962C7.04118 6.02645 7.07513 6.05967 7.10113 6.0994C7.15385 6.17812 7.19068 6.26623 7.20946 6.3594C7.22752 6.45185 7.21813 6.54718 7.20946 6.64179Z" fill="#858585"/>
</svg>
