<svg width="14" height="14" viewBox="0 0 14 14" fill="none" xmlns="http://www.w3.org/2000/svg">
<g clip-path="url(#clip0_1520_1239)">
<path d="M6.41667 12.8333C2.87875 12.8333 0 9.95458 0 6.41667C0 2.87875 2.87875 0 6.41667 0C9.95458 0 12.8333 2.87875 12.8333 6.41667C12.8333 9.95458 9.95458 12.8333 6.41667 12.8333ZM6.41667 1.16667C3.52217 1.16667 1.16667 3.52158 1.16667 6.41667C1.16667 9.31175 3.52217 11.6667 6.41667 11.6667C9.31117 11.6667 11.6667 9.31175 11.6667 6.41667C11.6667 3.52158 9.31117 1.16667 6.41667 1.16667Z" fill="#858585"/>
<path d="M13.4167 14C13.2674 14 13.1181 13.9429 13.0043 13.8291L10.2072 11.032C9.97975 10.8039 9.97975 10.4347 10.2072 10.2072C10.4353 9.97911 10.8046 9.97911 11.0327 10.2072L13.8292 13.0043C14.0572 13.2324 14.0572 13.601 13.8292 13.8291C13.7154 13.9429 13.5661 14 13.4167 14Z" fill="#858585"/>
</g>
<defs>
<clipPath id="clip0_1520_1239">
<rect width="14" height="14" fill="white"/>
</clipPath>
</defs>
</svg>
