<svg width="26" height="23" viewBox="0 0 26 23" fill="none" xmlns="http://www.w3.org/2000/svg">
<path d="M21.9613 0.303917L3.7449 1.58226C3.02674 1.63398 2.34201 1.90593 1.78406 2.36104C1.22611 2.81614 0.822092 3.43225 0.627098 4.12536C0.432104 4.81847 0.45562 5.55486 0.694439 6.23412C0.933258 6.91338 1.37576 7.50245 1.96161 7.92103L7.55939 11.8903C7.69115 11.9884 7.80204 12.1117 7.8856 12.2531C7.96916 12.3945 8.02372 12.5512 8.04608 12.7139L8.82267 19.5321C8.88954 20.1115 9.10014 20.6649 9.43533 21.1422C9.77052 21.6195 10.2197 22.0055 10.742 22.2651C11.2643 22.5246 11.8431 22.6496 12.426 22.6285C13.0089 22.6074 13.5772 22.441 14.0794 22.1444C14.5469 21.8619 14.9453 21.4783 15.2454 21.0218L25.1526 5.68164C25.5031 5.13599 25.6952 4.50367 25.7073 3.85524C25.7193 3.20681 25.551 2.56778 25.2211 2.00943C24.8912 1.45109 24.4126 0.99539 23.8388 0.693187C23.2649 0.390985 22.6184 0.25416 21.9714 0.297982L21.9613 0.303917ZM23.1863 4.41791L13.2791 19.7581C13.1468 19.9558 12.9573 20.1084 12.7358 20.1954C12.5144 20.2824 12.2716 20.2996 12.0401 20.2447C11.8086 20.1898 11.5994 20.0654 11.4406 19.8883C11.2818 19.7111 11.1809 19.4897 11.1515 19.2536L10.3649 12.4414C10.3534 12.351 10.3367 12.2613 10.3147 12.1729L17.2351 8.08356C17.5015 7.92615 17.6944 7.66937 17.7715 7.3697C17.8485 7.07003 17.8034 6.75202 17.646 6.48563C17.4886 6.21924 17.2318 6.0263 16.9321 5.94924C16.6325 5.87218 16.3144 5.91732 16.0481 6.07474L9.12765 10.1641C9.06079 10.1022 8.99036 10.0442 8.91672 9.99058L3.32898 6.01538C3.13634 5.87576 2.99099 5.68057 2.91243 5.456C2.83386 5.23142 2.82583 4.9882 2.88942 4.75893C2.95301 4.52967 3.08517 4.32532 3.26819 4.1733C3.45121 4.02128 3.67633 3.92885 3.91337 3.9084L22.1298 2.63005C22.3441 2.61712 22.5579 2.66359 22.7475 2.76434C22.9371 2.8651 23.0952 3.01622 23.2045 3.20108C23.3137 3.38594 23.3698 3.59736 23.3666 3.81206C23.3634 4.02675 23.301 4.2364 23.1863 4.41791V4.41791Z" fill="#272727"/>
</svg>
