<svg width="35" height="34" viewBox="0 0 35 34" fill="none" xmlns="http://www.w3.org/2000/svg">
<path d="M34.5834 10.0333C34.5916 9.92791 34.5916 9.82205 34.5834 9.71665V9.71665L31.1667 1.38331C31.0333 1.05391 30.7958 0.77454 30.4886 0.585739C30.1814 0.396938 29.8206 0.30852 29.4584 0.333313H5.54175C5.1996 0.332989 4.86525 0.432904 4.58198 0.620114C4.29871 0.807324 4.07959 1.0732 3.953 1.38331L0.536331 9.71665C0.528097 9.82205 0.528097 9.92791 0.536331 10.0333C0.479565 10.1261 0.439144 10.2275 0.416748 10.3333V10.3333C0.435763 11.4854 0.760509 12.613 1.35931 13.6061C1.95811 14.5992 2.81053 15.424 3.83341 16V32C3.83341 32.442 4.0134 32.8659 4.33377 33.1785C4.65415 33.4911 5.08867 33.6666 5.54175 33.6666H29.4584C29.9115 33.6666 30.346 33.4911 30.6664 33.1785C30.9868 32.8659 31.1667 32.442 31.1667 32V16.0666C32.1995 15.4849 33.0583 14.6497 33.6577 13.6439C34.2571 12.6381 34.5762 11.4967 34.5834 10.3333V10.3333C34.5994 10.2339 34.5994 10.1327 34.5834 10.0333V10.0333ZM19.2084 30.3333H15.7917V23.6666H19.2084V30.3333ZM27.7501 30.3333H22.6251V22C22.6251 21.558 22.4451 21.134 22.1247 20.8215C21.8043 20.5089 21.3698 20.3333 20.9167 20.3333H14.0834C13.6303 20.3333 13.1958 20.5089 12.8754 20.8215C12.5551 21.134 12.3751 21.558 12.3751 22V30.3333H7.25008V17C8.22292 16.9946 9.18338 16.7867 10.0672 16.39C10.951 15.9934 11.7379 15.4172 12.3751 14.7C13.0163 15.4094 13.805 15.9775 14.6886 16.3666C15.5722 16.7558 16.5306 16.9571 17.5001 16.9571C18.4696 16.9571 19.4279 16.7558 20.3116 16.3666C21.1952 15.9775 21.9838 15.4094 22.6251 14.7C23.2623 15.4172 24.0491 15.9934 24.933 16.39C25.8168 16.7867 26.7772 16.9946 27.7501 17V30.3333ZM27.7501 13.6666C26.8439 13.6666 25.9749 13.3155 25.3341 12.6903C24.6934 12.0652 24.3334 11.2174 24.3334 10.3333C24.3334 9.89128 24.1534 9.46736 23.8331 9.1548C23.5127 8.84224 23.0782 8.66665 22.6251 8.66665C22.172 8.66665 21.7375 8.84224 21.4171 9.1548C21.0967 9.46736 20.9167 9.89128 20.9167 10.3333C20.9167 11.2174 20.5568 12.0652 19.916 12.6903C19.2753 13.3155 18.4062 13.6666 17.5001 13.6666C16.5939 13.6666 15.7249 13.3155 15.0841 12.6903C14.4434 12.0652 14.0834 11.2174 14.0834 10.3333C14.0834 9.89128 13.9034 9.46736 13.5831 9.1548C13.2627 8.84224 12.8282 8.66665 12.3751 8.66665C11.922 8.66665 11.4875 8.84224 11.1671 9.1548C10.8467 9.46736 10.6667 9.89128 10.6667 10.3333C10.6836 10.7711 10.6119 11.2077 10.4557 11.6184C10.2995 12.0291 10.062 12.4058 9.75663 12.7269C9.45126 13.0481 9.08404 13.3074 8.67595 13.4901C8.26786 13.6728 7.82689 13.7752 7.37821 13.7916C6.47205 13.8248 5.58951 13.5054 4.92473 12.9037C4.59557 12.6058 4.32977 12.2475 4.14252 11.8494C3.95528 11.4513 3.85024 11.0211 3.83341 10.5833L6.70341 3.66665H28.2967L31.1667 10.5833C31.102 11.4233 30.7136 12.2083 30.0798 12.7803C29.4459 13.3523 28.6135 13.669 27.7501 13.6666V13.6666Z" fill="#272727"/>
</svg>
