<svg width="19" height="19" viewBox="0 0 19 19" fill="none" xmlns="http://www.w3.org/2000/svg">
<path d="M9.5 13.2778L9.5 5.72223" stroke="#F37C49" stroke-width="2" stroke-linecap="round" stroke-linejoin="round"/>
<path d="M18 10.9167L18 8.08337" stroke="#F37C49" stroke-width="2" stroke-linecap="round" stroke-linejoin="round"/>
<path d="M1 10.9167L1 8.08337" stroke="#F37C49" stroke-width="2" stroke-linecap="round" stroke-linejoin="round"/>
<path d="M4.77778 1H3.88889C2.2934 1 1 2.2934 1 3.88889V4.77778" stroke="#F37C49" stroke-width="2" stroke-linecap="round" stroke-linejoin="round"/>
<path d="M14.2222 1H15.1111C16.7066 1 18 2.2934 18 3.88889V4.77778" stroke="#F37C49" stroke-width="2" stroke-linecap="round" stroke-linejoin="round"/>
<path d="M14.2222 18H15.1111C16.7066 18 18 16.7066 18 15.1111V14.2222" stroke="#F37C49" stroke-width="2" stroke-linecap="round" stroke-linejoin="round"/>
<path d="M4.77778 18H3.88889C2.2934 18 1 16.7066 1 15.1111V14.2222" stroke="#F37C49" stroke-width="2" stroke-linecap="round" stroke-linejoin="round"/>
<path d="M10.9167 1H8.08337" stroke="#F37C49" stroke-width="2" stroke-linecap="round" stroke-linejoin="round"/>
<path d="M13.2777 9.5L5.72217 9.5" stroke="#F37C49" stroke-width="2" stroke-linecap="round" stroke-linejoin="round"/>
<path d="M10.9167 18H8.08337" stroke="#F37C49" stroke-width="2" stroke-linecap="round" stroke-linejoin="round"/>
</svg>
