<svg width="36" height="36" viewBox="0 0 36 36" fill="none" xmlns="http://www.w3.org/2000/svg">
<circle cx="18" cy="18" r="18" fill="#A9D2FF"/>
<path d="M26.5877 11.4051C26.4686 11.2768 26.327 11.1749 26.1709 11.1053C26.0148 11.0358 25.8474 11 25.6783 11C25.5092 11 25.3418 11.0358 25.1858 11.1053C25.0297 11.1749 24.888 11.2768 24.769 11.4051L15.2271 21.6227L11.2182 17.322C11.0946 17.1943 10.9487 17.0939 10.7888 17.0265C10.6288 16.9591 10.4581 16.9261 10.2862 16.9293C10.1144 16.9324 9.94478 16.9718 9.78714 17.045C9.6295 17.1183 9.48691 17.2241 9.36749 17.3563C9.24807 17.4885 9.15417 17.6445 9.09115 17.8155C9.02813 17.9865 8.99722 18.1691 9.0002 18.3529C9.00317 18.5367 9.03996 18.7181 9.10848 18.8866C9.17699 19.0552 9.27588 19.2077 9.39951 19.3354L14.3177 24.5949C14.4368 24.7232 14.5785 24.8251 14.7345 24.8947C14.8906 24.9642 15.058 25 15.2271 25C15.3962 25 15.5636 24.9642 15.7197 24.8947C15.8757 24.8251 16.0174 24.7232 16.1364 24.5949L26.5877 13.4185C26.7177 13.2903 26.8214 13.1346 26.8924 12.9613C26.9634 12.7881 27 12.601 27 12.4118C27 12.2227 26.9634 12.0356 26.8924 11.8623C26.8214 11.6891 26.7177 11.5334 26.5877 11.4051Z" fill="white"/>
</svg>
