<svg width="18" height="18" viewBox="0 0 18 18" fill="none" xmlns="http://www.w3.org/2000/svg">
<path d="M9 12.5556L9 5.44446" stroke="#F37C49" stroke-width="2" stroke-linecap="round" stroke-linejoin="round"/>
<path d="M17 10.3334L17 7.66669" stroke="#F37C49" stroke-width="2" stroke-linecap="round" stroke-linejoin="round"/>
<path d="M1 10.3334L1 7.66669" stroke="#F37C49" stroke-width="2" stroke-linecap="round" stroke-linejoin="round"/>
<path d="M4.55556 1H3.88889C2.2934 1 1 2.2934 1 3.88889V4.55556" stroke="#F37C49" stroke-width="2" stroke-linecap="round" stroke-linejoin="round"/>
<path d="M13.4444 1H14.1111C15.7066 1 17 2.2934 17 3.88889V4.55556" stroke="#F37C49" stroke-width="2" stroke-linecap="round" stroke-linejoin="round"/>
<path d="M13.4444 17H14.1111C15.7066 17 17 15.7066 17 14.1111V13.4444" stroke="#F37C49" stroke-width="2" stroke-linecap="round" stroke-linejoin="round"/>
<path d="M4.55556 17H3.88889C2.2934 17 1 15.7066 1 14.1111V13.4444" stroke="#F37C49" stroke-width="2" stroke-linecap="round" stroke-linejoin="round"/>
<path d="M10.3334 1H7.66669" stroke="#F37C49" stroke-width="2" stroke-linecap="round" stroke-linejoin="round"/>
<path d="M12.5555 9L5.4444 9" stroke="#F37C49" stroke-width="2" stroke-linecap="round" stroke-linejoin="round"/>
<path d="M10.3334 17H7.66669" stroke="#F37C49" stroke-width="2" stroke-linecap="round" stroke-linejoin="round"/>
</svg>
