<svg width="15" height="17" viewBox="0 0 15 17" fill="none" xmlns="http://www.w3.org/2000/svg">
<path d="M0.588477 13.3637C0.964749 12.4655 1.51079 11.6497 2.19618 10.9617C2.87949 10.2716 3.68893 9.72148 4.57981 9.34157C4.58778 9.33755 4.59576 9.33554 4.60374 9.33152C3.36106 8.427 2.55322 6.95363 2.55322 5.29132C2.55322 2.53755 4.76731 0.306396 7.5 0.306396C10.2327 0.306396 12.4468 2.53755 12.4468 5.29132C12.4468 6.95363 11.6389 8.427 10.3963 9.33353C10.4042 9.33755 10.4122 9.33956 10.4202 9.34358C11.3138 9.72348 12.1157 10.2682 12.8038 10.9637C13.4886 11.6523 14.0345 12.4679 14.4115 13.3657C14.7819 14.2446 14.9816 15.1869 15 16.1416C15.0005 16.163 14.9967 16.1844 14.989 16.2043C14.9812 16.2243 14.9695 16.2425 14.9546 16.2579C14.9398 16.2732 14.922 16.2855 14.9024 16.2938C14.8828 16.3021 14.8617 16.3064 14.8404 16.3064H13.6436C13.5558 16.3064 13.486 16.236 13.484 16.1496C13.4441 14.5979 12.8258 13.1446 11.7327 12.0431C10.6017 10.9034 9.09972 10.2762 7.5 10.2762C5.90028 10.2762 4.39829 10.9034 3.26731 12.0431C2.17424 13.1446 1.55589 14.5979 1.516 16.1496C1.514 16.2381 1.44419 16.3064 1.35642 16.3064H0.159623C0.138328 16.3064 0.117246 16.3021 0.097621 16.2938C0.0779963 16.2855 0.0602245 16.2732 0.0453539 16.2579C0.0304823 16.2425 0.0188131 16.2243 0.0110321 16.2043C0.00325203 16.1844 -0.000482559 16.163 4.95911e-05 16.1416C0.0199966 15.1808 0.217468 14.2461 0.588477 13.3637ZM7.5 8.74861C8.41555 8.74861 9.27725 8.38881 9.92552 7.73554C10.5738 7.08228 10.9308 6.21393 10.9308 5.29132C10.9308 4.36871 10.5738 3.50037 9.92552 2.8471C9.27725 2.19383 8.41555 1.83403 7.5 1.83403C6.58445 1.83403 5.72275 2.19383 5.07448 2.8471C4.42622 3.50037 4.06917 4.36871 4.06917 5.29132C4.06917 6.21393 4.42622 7.08228 5.07448 7.73554C5.72275 8.38881 6.58445 8.74861 7.5 8.74861Z" fill="#272727"/>
</svg>
