<svg width="18" height="20" viewBox="0 0 18 20" fill="none" xmlns="http://www.w3.org/2000/svg">
<path d="M12 15.3064H6M12 15.3064H17L15.595 13.9014C15.4063 13.7127 15.2567 13.4886 15.1546 13.2421C15.0525 12.9955 15 12.7313 15 12.4644V9.3064C15.0002 8.06533 14.6156 6.85474 13.8992 5.84128C13.1829 4.82783 12.17 4.06136 11 3.6474V3.3064C11 2.77596 10.7893 2.26726 10.4142 1.89218C10.0391 1.51711 9.53043 1.3064 9 1.3064C8.46957 1.3064 7.96086 1.51711 7.58579 1.89218C7.21071 2.26726 7 2.77596 7 3.3064V3.6474C4.67 4.4714 3 6.6944 3 9.3064V12.4654C3 13.0034 2.786 13.5204 2.405 13.9014L1 15.3064H6H12ZM12 15.3064V16.3064C12 17.102 11.6839 17.8651 11.1213 18.4277C10.5587 18.9903 9.79565 19.3064 9 19.3064C8.20435 19.3064 7.44129 18.9903 6.87868 18.4277C6.31607 17.8651 6 17.102 6 16.3064V15.3064H12Z" stroke="#272727" stroke-linecap="round" stroke-linejoin="round"/>
</svg>
