<svg width="29" height="25" viewBox="0 0 29 25" fill="none" xmlns="http://www.w3.org/2000/svg">
<path d="M2.97705 2.97311C2.35025 3.59865 1.85304 4.34128 1.51382 5.1586C1.1746 5.97591 1 6.85191 1 7.73657C1 8.62123 1.1746 9.49722 1.51382 10.3145C1.85304 11.1319 2.35025 11.8745 2.97705 12.5L14.5 24L26.023 12.5C27.2888 11.2367 28 9.52321 28 7.73657C28 5.94992 27.2888 4.23646 26.023 2.97311C24.7571 1.70976 23.0402 1.00002 21.25 1.00002C19.4598 1.00002 17.7429 1.70976 16.477 2.97311L14.5 4.94616L12.523 2.97311C11.8962 2.34756 11.1521 1.85134 10.3332 1.51279C9.51421 1.17425 8.63646 1 7.75003 1C6.86361 1 5.98586 1.17425 5.16691 1.51279C4.34796 1.85134 3.60385 2.34756 2.97705 2.97311V2.97311Z" stroke="#272727" stroke-width="2" stroke-linecap="round" stroke-linejoin="round"/>
</svg>
